<?xml version="1.0" standalone="no"?>
<!DOCTYPE svg PUBLIC "-//W3C//DTD SVG 20010904//EN"
 "http://www.w3.org/TR/2001/REC-SVG-20010904/DTD/svg10.dtd">
<svg version="1.0" xmlns="http://www.w3.org/2000/svg"
 width="1102.000000pt" height="1102.000000pt" viewBox="0 0 1102.000000 1102.000000"
 preserveAspectRatio="xMidYMid meet">
<metadata>
Created by potrace 1.14, written by Peter Selinger 2001-2017
</metadata>
<g transform="translate(0.000000,1102.000000) scale(0.100000,-0.100000)"
fill="#000000" stroke="none">
<path d="M3062 9770 c-7 -11 -19 -20 -27 -20 -16 0 -21 -16 -6 -22 5 -2 4 -14
-2 -28 -5 -14 -11 -32 -13 -40 -2 -8 -8 -16 -13 -18 -6 -2 -11 -12 -11 -21 0
-10 -3 -21 -7 -24 -3 -4 -8 -19 -9 -33 -2 -14 -9 -34 -17 -43 -8 -9 -18 -34
-22 -56 -4 -22 -11 -46 -17 -52 -7 -9 -7 -13 2 -13 10 0 10 -3 0 -15 -11 -13
-28 -66 -33 -105 -1 -8 -8 -24 -14 -36 -7 -11 -9 -30 -6 -42 3 -11 -2 -35 -11
-53 -9 -17 -13 -35 -10 -40 3 -5 0 -9 -6 -9 -7 0 -9 -7 -6 -16 4 -10 -2 -23
-14 -34 -12 -11 -19 -27 -17 -41 4 -23 -5 -37 -55 -92 -16 -17 -28 -36 -28
-43 0 -7 -9 -18 -19 -23 -10 -6 -23 -23 -29 -39 -5 -15 -26 -45 -45 -66 -20
-21 -34 -43 -31 -51 3 -7 -7 -22 -22 -34 -15 -11 -24 -21 -20 -21 4 0 0 -12
-8 -27 -8 -16 -22 -45 -32 -65 -9 -21 -20 -38 -25 -38 -5 0 -9 -11 -9 -24 0
-16 -7 -27 -19 -31 -11 -3 -18 -12 -15 -19 3 -7 -1 -20 -9 -28 -8 -8 -18 -30
-22 -49 -4 -19 -16 -48 -26 -65 -10 -17 -19 -38 -19 -46 0 -9 -7 -21 -15 -28
-8 -7 -13 -16 -10 -20 3 -5 1 -11 -4 -14 -9 -6 -26 -74 -22 -90 1 -4 -3 -14
-9 -21 -6 -7 -13 -33 -16 -57 -2 -23 -7 -50 -11 -58 -7 -19 -14 -91 -15 -148
0 -39 -2 -42 -22 -36 -11 4 -26 14 -32 22 -6 8 -16 12 -22 8 -6 -3 -14 0 -19
7 -4 8 -24 22 -43 32 -94 49 -151 75 -165 75 -8 0 -15 4 -15 9 0 15 -40 20
-53 7 -6 -7 -20 -15 -31 -19 -12 -5 -17 -14 -13 -27 3 -11 1 -20 -4 -20 -5 0
-9 -13 -9 -29 0 -17 -4 -32 -9 -36 -5 -3 -15 -30 -21 -60 -6 -30 -18 -61 -25
-69 -8 -7 -12 -16 -9 -19 4 -3 2 -12 -2 -19 -5 -7 -10 -22 -11 -32 -2 -11 -8
-25 -14 -32 -6 -8 -9 -19 -7 -26 2 -6 -6 -32 -18 -57 -13 -24 -21 -48 -18 -52
3 -5 -2 -21 -9 -36 -8 -15 -14 -43 -13 -61 0 -17 -3 -32 -8 -32 -4 0 -6 -11
-4 -24 3 -16 -2 -28 -13 -37 -11 -8 -14 -16 -8 -19 6 -5 6 -16 -1 -36 -14 -36
-22 -91 -24 -169 0 -33 -4 -64 -7 -70 -4 -5 -6 -23 -5 -40 1 -16 -2 -35 -7
-42 -4 -6 -3 -14 2 -17 7 -5 6 -15 -1 -32 -9 -20 -9 -27 1 -33 7 -5 12 -12 10
-17 -13 -46 -15 -74 -7 -74 5 0 6 -5 2 -12 -10 -15 -12 -88 -2 -88 3 0 7 -26
8 -57 2 -111 4 -133 12 -133 4 0 8 -15 8 -34 0 -19 4 -37 10 -41 5 -3 6 -15 1
-27 -8 -23 6 -98 19 -98 5 0 6 -9 3 -20 -3 -11 -1 -26 5 -33 5 -6 8 -20 7 -29
-2 -10 0 -18 4 -18 4 0 7 -10 8 -22 1 -11 8 -25 15 -29 9 -6 9 -9 1 -9 -8 0
-5 -15 7 -47 28 -72 33 -87 32 -95 -1 -5 3 -8 8 -8 6 0 10 -6 9 -12 -3 -19 46
-131 66 -152 6 -6 19 -30 29 -53 11 -24 23 -43 28 -43 4 0 8 -4 8 -10 0 -5 16
-26 35 -46 20 -20 34 -38 32 -40 -2 -2 -32 2 -68 10 -75 15 -343 16 -358 1 -5
-5 -12 -31 -15 -57 -5 -40 -3 -48 10 -48 11 0 15 -6 11 -20 -3 -13 0 -20 10
-20 8 0 11 -4 8 -10 -3 -5 -1 -10 5 -10 7 0 10 -7 6 -15 -3 -8 3 -20 12 -27 9
-7 18 -26 20 -41 2 -15 10 -36 18 -45 40 -44 64 -78 64 -89 0 -7 5 -13 10 -13
6 0 10 -5 10 -11 0 -11 41 -67 43 -60 1 3 24 -17 51 -42 27 -26 55 -47 62 -47
8 0 14 -7 14 -17 0 -9 3 -14 6 -10 3 3 18 -5 32 -19 15 -13 32 -24 39 -24 7 0
13 -4 13 -9 0 -8 21 -17 44 -19 5 0 12 -6 17 -14 5 -7 12 -13 16 -13 19 -1
103 -39 103 -46 0 -5 7 -9 15 -9 20 0 85 -32 85 -42 0 -5 7 -25 16 -46 10 -20
19 -48 21 -62 2 -14 11 -29 19 -33 8 -5 12 -12 9 -18 -4 -5 -1 -9 5 -9 6 0 8
-4 5 -10 -3 -5 -1 -10 4 -10 6 0 11 -9 11 -20 0 -11 7 -23 16 -27 8 -3 13 -12
10 -19 -3 -8 -1 -14 4 -14 6 0 10 -6 10 -13 0 -7 13 -23 30 -37 17 -14 30 -31
30 -38 0 -8 23 -37 51 -65 27 -29 65 -67 82 -84 18 -18 35 -33 39 -33 4 0 13
-6 21 -14 7 -8 31 -23 52 -35 l38 -20 -34 1 c-19 0 -43 -2 -54 -6 -11 -3 -45
-12 -76 -19 -31 -6 -63 -18 -71 -24 -8 -7 -17 -10 -20 -7 -4 3 -20 -2 -37 -10
-16 -9 -39 -16 -50 -16 -30 0 -78 -54 -77 -86 1 -22 7 -29 30 -35 16 -5 32
-12 35 -17 3 -4 23 -16 44 -26 29 -13 70 -19 165 -21 70 -2 131 0 137 3 5 4
28 8 50 9 37 2 137 28 160 42 11 6 17 8 60 17 17 4 40 15 51 26 26 24 35 14
40 -45 5 -53 12 -108 17 -127 7 -30 20 -115 18 -119 -2 -2 1 -7 6 -10 13 -9
37 -92 35 -118 0 -13 4 -23 10 -23 5 0 8 -6 5 -13 -2 -6 10 -20 29 -29 29 -15
35 -15 48 -3 8 8 21 15 30 15 8 0 18 9 21 20 3 11 10 20 14 20 4 0 23 30 42
68 19 37 36 69 39 72 3 3 6 12 8 20 2 8 10 22 18 31 8 8 14 23 14 32 0 24 19
31 27 10 9 -24 29 -44 37 -36 3 3 8 -2 12 -11 3 -9 10 -13 15 -10 5 3 9 0 9
-6 0 -7 28 -40 63 -74 34 -35 102 -104 152 -155 49 -51 105 -102 125 -113 19
-12 38 -27 42 -32 4 -6 8 -8 8 -5 0 3 22 0 50 -7 53 -14 93 -11 98 6 2 6 11
17 19 26 8 8 26 54 38 102 20 75 41 135 52 151 2 3 10 -5 19 -17 8 -12 21 -22
29 -22 9 0 12 -6 9 -15 -4 -8 -2 -15 4 -15 5 0 12 -8 16 -18 3 -9 14 -29 23
-44 10 -15 38 -60 62 -100 65 -109 73 -119 108 -133 29 -12 34 -12 58 11 14
13 28 24 31 24 13 0 65 64 70 88 4 15 13 36 21 48 7 11 11 23 8 26 -3 3 0 18
7 33 10 23 16 26 42 21 33 -7 69 -12 99 -14 26 -3 21 -18 -23 -64 -22 -24 -40
-46 -40 -50 0 -4 -17 -25 -37 -47 -55 -57 -73 -83 -73 -103 0 -10 -4 -18 -10
-18 -11 0 -70 -112 -70 -134 0 -8 -6 -21 -12 -28 -16 -16 -30 -46 -54 -113
-19 -53 -70 -132 -116 -179 -16 -16 -26 -31 -23 -34 3 -3 0 -11 -6 -19 -6 -7
-8 -13 -5 -13 4 0 -2 -10 -13 -22 -11 -11 -18 -25 -15 -30 3 -4 -2 -11 -10
-14 -9 -3 -16 -12 -16 -19 0 -7 -6 -18 -14 -25 -8 -6 -12 -18 -10 -25 3 -7 -4
-19 -16 -25 -11 -6 -18 -15 -15 -20 3 -6 -3 -19 -14 -31 -11 -12 -18 -25 -16
-29 3 -5 -2 -10 -10 -14 -8 -3 -15 -16 -15 -30 0 -14 -4 -27 -9 -31 -13 -7
-41 -64 -41 -82 0 -7 -4 -13 -10 -13 -5 0 -13 -18 -16 -40 -4 -22 -10 -40 -15
-40 -5 0 -8 -3 -7 -7 1 -5 -3 -26 -7 -48 -5 -22 -8 -46 -7 -52 2 -7 -7 -26
-19 -42 -19 -26 -20 -32 -8 -48 9 -11 10 -14 1 -9 -7 4 -15 0 -19 -10 -4 -10
-2 -19 5 -22 17 -5 15 -32 -2 -32 -8 0 -28 -16 -45 -35 -17 -19 -34 -35 -39
-35 -4 0 -16 -14 -25 -30 -10 -17 -23 -30 -28 -30 -6 0 -8 -4 -4 -9 3 -5 -4
-16 -15 -24 -11 -7 -17 -17 -13 -20 3 -4 1 -7 -5 -7 -7 0 -12 -6 -12 -14 0 -7
-7 -19 -14 -26 -8 -6 -24 -31 -36 -55 -12 -24 -30 -45 -41 -48 -13 -4 -19 -12
-17 -23 3 -17 5 -19 76 -53 24 -12 55 -32 69 -46 15 -13 31 -21 36 -18 13 8
-23 -48 -45 -70 -12 -12 -40 -19 -95 -23 -42 -2 -80 -8 -83 -13 -3 -4 -18 -11
-35 -15 -16 -4 -64 -23 -105 -43 -41 -20 -78 -36 -82 -35 -5 1 -8 -3 -8 -9 0
-5 -4 -8 -9 -4 -5 3 -12 -4 -16 -14 -3 -11 -14 -23 -25 -26 -16 -5 -70 -66
-70 -79 0 -3 -9 -15 -20 -26 -11 -11 -20 -32 -20 -47 0 -14 3 -24 6 -20 3 3
18 1 33 -5 30 -12 62 -17 150 -23 66 -4 174 -13 226 -20 119 -14 515 -26 515
-15 0 3 21 5 46 5 25 -1 47 2 49 5 16 25 228 -25 250 -59 3 -6 11 -9 16 -6 5
4 9 1 9 -4 0 -11 79 -48 93 -43 4 1 7 -3 7 -9 0 -5 4 -8 8 -5 5 3 26 -4 47
-15 20 -11 44 -18 51 -15 8 3 14 2 14 -3 0 -4 33 -7 73 -6 61 1 97 5 192 19 6
1 16 5 23 9 7 5 12 3 12 -5 0 -8 3 -9 8 -3 8 12 19 14 82 20 26 2 65 11 86 21
22 9 41 18 44 19 3 0 21 6 40 13 19 6 56 14 82 16 26 3 53 8 60 13 7 4 28 9
46 10 26 1 41 -5 67 -31 26 -26 45 -36 84 -41 28 -4 53 -11 57 -16 3 -5 20 -9
39 -9 18 0 35 -5 37 -11 3 -10 321 -15 336 -5 4 2 39 7 77 11 39 3 87 10 107
16 47 12 109 4 124 -16 6 -8 16 -15 23 -15 6 0 11 -4 11 -8 0 -5 6 -9 13 -9 7
0 44 -14 82 -32 48 -23 77 -31 96 -27 16 3 31 1 34 -4 3 -5 12 -7 20 -3 8 3
15 0 15 -7 0 -7 7 -10 15 -6 8 3 15 1 15 -3 0 -5 8 -8 18 -6 9 2 17 4 17 5 0
1 9 3 20 5 11 1 36 6 55 10 19 3 51 7 70 7 19 0 40 3 45 6 6 4 16 7 24 8 7 2
23 11 35 22 11 11 38 23 59 26 20 4 37 10 37 14 0 8 48 32 64 32 13 0 59 57
62 77 4 22 25 43 45 43 24 0 31 15 43 100 6 38 28 82 47 91 8 4 41 20 74 35
33 16 62 32 63 37 2 4 12 7 23 7 10 0 19 4 19 9 0 5 9 11 21 14 12 3 18 10 14
16 -3 6 -1 11 6 11 14 0 58 45 107 106 20 27 32 53 32 72 0 17 4 33 9 36 4 3
11 24 15 46 5 32 14 45 44 64 20 13 52 37 71 55 18 17 37 31 43 31 14 0 79 49
114 87 17 18 36 33 41 33 9 0 33 45 37 71 1 3 9 13 19 23 9 10 15 22 12 27 -4
5 -2 9 3 9 34 0 34 270 0 291 -6 4 -7 12 -4 18 4 6 3 11 -3 11 -5 0 -13 9 -16
21 -4 12 -14 30 -24 41 -9 11 -24 29 -33 40 -10 12 -18 25 -18 30 0 4 -7 8
-15 8 -8 0 -15 7 -15 15 0 8 -7 15 -15 15 -8 0 -15 4 -15 10 0 14 -164 93
-194 93 -14 0 -26 3 -26 8 0 10 -242 2 -249 -9 -3 -5 -16 -8 -28 -7 -13 1 -23
-2 -23 -7 0 -6 -30 -7 -72 -2 -40 3 -113 8 -163 10 -107 3 -99 1 -198 48 -43
20 -86 36 -95 36 -34 1 -101 38 -101 57 1 73 -60 193 -98 193 -7 0 -13 4 -13
9 0 22 -98 42 -145 28 -11 -3 -30 -8 -42 -12 -18 -5 -22 -1 -28 35 -4 22 -11
40 -16 40 -5 0 -9 5 -9 10 0 13 -37 50 -50 50 -5 0 -10 4 -10 8 0 5 -12 22
-26 39 -33 40 -34 46 -6 48 12 1 22 -1 22 -4 0 -7 109 -5 133 3 9 3 25 9 35
13 9 3 20 7 24 7 10 1 57 74 63 99 4 14 -1 30 -14 44 -40 43 -101 148 -88 152
6 2 32 20 57 39 25 20 47 37 49 39 2 2 5 11 6 21 0 9 4 23 8 29 5 7 3 23 -4
35 -20 37 -99 116 -130 129 -16 6 -29 15 -29 20 0 5 -7 9 -15 9 -8 0 -15 4
-15 9 0 5 -17 17 -37 26 -20 10 -42 22 -47 27 -6 5 -25 18 -43 28 -18 11 -41
37 -53 59 -53 105 -136 199 -166 189 -5 -2 -10 0 -12 5 -1 4 0 7 3 7 3 0 38
21 79 46 42 25 85 47 98 49 13 3 24 9 26 15 2 5 10 10 18 10 8 0 14 5 14 12 0
6 3 9 6 5 4 -3 21 5 38 18 17 13 34 23 38 22 4 -1 16 6 28 15 11 10 20 15 20
12 0 -3 14 6 30 20 17 14 46 33 65 42 19 9 35 20 35 25 0 5 16 17 35 26 19 9
35 22 35 28 0 6 20 21 44 33 24 13 47 29 50 37 3 8 10 15 16 15 14 0 140 125
140 139 0 6 7 11 15 11 8 0 15 6 15 14 0 8 4 16 9 18 11 4 101 115 101 125 0
4 9 16 19 27 11 12 42 64 69 116 63 122 77 166 60 192 -6 10 -8 9 -8 -3 0 -8
-14 -42 -30 -74 -17 -32 -30 -65 -30 -72 0 -7 -4 -13 -9 -13 -5 0 -14 -15 -22
-32 -12 -30 -67 -110 -136 -198 -49 -61 -168 -180 -180 -180 -7 0 -13 -7 -13
-15 0 -9 -8 -19 -17 -22 -10 -4 -25 -15 -33 -25 -8 -9 -22 -18 -29 -20 -8 -2
-26 -16 -39 -31 -14 -15 -42 -37 -64 -48 -37 -19 -63 -37 -94 -67 -8 -7 -18
-10 -24 -7 -6 3 -13 -1 -16 -9 -3 -9 -12 -16 -19 -16 -7 0 -18 -7 -25 -15 -7
-8 -21 -15 -31 -15 -9 0 -24 -7 -33 -15 -8 -8 -19 -15 -25 -15 -6 0 -11 -5
-11 -11 0 -6 -7 -9 -15 -5 -9 3 -19 -3 -25 -14 -6 -11 -17 -20 -25 -20 -7 0
-15 -3 -17 -7 -1 -5 -28 -21 -58 -37 -30 -16 -62 -35 -71 -42 -8 -8 -21 -14
-28 -14 -7 0 -25 -9 -41 -20 -15 -11 -30 -17 -34 -13 -3 3 -6 2 -6 -4 0 -6
-12 -16 -27 -22 -16 -7 -39 -18 -53 -26 -14 -8 -51 -26 -82 -40 -32 -14 -58
-30 -58 -36 0 -5 -6 -9 -13 -9 -8 0 -37 -22 -66 -48 -42 -39 -55 -60 -71 -111
-11 -34 -20 -82 -20 -106 0 -60 19 -142 36 -160 8 -7 14 -18 13 -22 -2 -9 8
-39 20 -63 5 -9 12 -36 16 -60 4 -25 11 -52 15 -60 5 -8 11 -38 15 -65 4 -28
9 -63 12 -80 3 -16 7 -96 9 -177 3 -167 -3 -180 -54 -105 -17 23 -66 87 -111
142 -44 55 -88 115 -97 133 -8 18 -24 38 -35 45 -10 6 -19 17 -19 24 0 7 -6
13 -12 13 -7 0 -33 18 -58 40 -44 40 -170 100 -209 100 -12 0 -21 5 -21 11 0
6 -7 8 -16 5 -19 -7 -99 12 -90 21 4 4 21 8 39 9 18 2 46 8 62 15 17 7 35 13
40 14 31 4 65 18 65 27 0 5 4 7 9 4 15 -9 68 23 74 44 3 11 -1 26 -8 34 -8 7
-11 16 -8 20 4 3 2 6 -3 7 -55 3 -78 9 -93 23 -10 9 -20 16 -23 16 -4 0 -49
24 -102 54 -52 30 -97 51 -100 49 -3 -3 -8 2 -12 11 -3 9 -10 13 -15 10 -5 -3
-12 2 -15 10 -3 9 -13 16 -21 16 -8 0 -12 4 -8 10 3 5 11 7 18 4 7 -2 33 0 59
4 26 5 50 6 55 1 12 -12 25 1 47 43 15 31 17 40 6 53 -7 8 -17 12 -22 9 -6 -4
-13 -2 -17 3 -7 11 -175 93 -191 93 -5 0 -10 4 -10 9 0 5 -12 12 -27 16 -15 3
-41 16 -57 28 -17 12 -32 21 -33 19 -8 -7 -23 0 -18 8 3 6 3 10 -2 11 -4 0
-19 3 -33 5 -28 5 -70 -13 -70 -30 0 -24 -155 -196 -176 -196 -6 0 -17 -7 -24
-15 -7 -9 -15 -13 -18 -11 -2 3 -22 -4 -43 -15 -22 -11 -39 -17 -39 -14 0 2
-12 0 -27 -6 -68 -26 -229 -3 -325 47 -15 8 -36 15 -47 17 -12 2 -32 13 -45
24 -13 12 -26 20 -28 17 -6 -5 -88 75 -88 86 0 6 -4 10 -10 10 -13 0 -60 75
-60 95 0 8 -9 23 -20 32 -11 10 -20 23 -20 29 0 6 -9 23 -21 38 -36 45 -44
205 -13 274 34 79 40 88 74 122 41 42 110 77 166 85 116 17 117 17 169 -8 44
-22 79 -37 95 -42 3 -1 21 -8 40 -17 19 -8 67 -25 105 -38 39 -12 76 -27 83
-33 6 -5 12 -7 12 -4 0 3 21 0 48 -8 26 -8 57 -15 70 -15 12 0 22 -4 22 -8 0
-5 6 -9 13 -9 6 -1 28 -3 47 -6 83 -12 148 -19 201 -21 30 -2 60 -5 65 -8 5
-3 38 -5 74 -4 58 1 65 3 79 28 15 26 14 28 -27 67 -23 23 -42 43 -42 46 0 3
-24 30 -53 59 -28 29 -74 79 -102 111 -27 33 -69 80 -93 105 -23 25 -55 63
-70 85 -15 22 -40 54 -57 71 -16 18 -39 44 -50 58 -11 15 -29 37 -40 50 -41
47 -62 73 -129 161 -38 50 -75 95 -81 100 -7 6 -12 13 -11 16 1 4 -29 47 -66
97 -38 50 -68 93 -68 97 0 3 -12 18 -26 33 -14 15 -32 41 -41 57 -9 17 -23 40
-32 51 -23 31 -56 81 -93 139 -7 11 -16 22 -19 25 -30 24 -43 100 -23 132 7
11 152 1 294 -20 36 -5 76 -9 90 -8 14 1 30 0 35 -3 6 -3 24 -6 40 -7 17 0 39
-4 51 -7 11 -4 56 -9 100 -12 156 -9 217 -14 220 -18 2 -2 -10 -22 -26 -44
-16 -22 -27 -43 -24 -46 3 -3 0 -14 -7 -26 -15 -23 -5 -41 13 -23 7 7 22 12
34 12 12 0 49 26 88 61 l67 61 187 3 c103 2 207 6 232 9 25 3 70 8 100 12 30
3 71 8 90 11 19 3 45 6 58 7 12 0 22 3 22 6 0 3 10 6 23 7 12 0 36 4 52 7 17
4 45 8 63 11 18 2 37 7 42 10 6 4 23 8 38 10 32 5 56 11 99 24 27 8 34 7 42
-7 8 -13 11 -10 19 18 7 30 4 43 -21 90 -17 30 -39 64 -49 76 -10 11 -18 24
-18 28 0 5 -10 19 -22 31 -34 34 -50 55 -42 55 4 0 -3 8 -14 19 -12 10 -22 23
-22 29 0 5 -13 20 -30 33 -16 13 -30 27 -30 31 0 13 -64 97 -75 98 -13 2 -69
69 -63 75 2 3 29 -9 59 -25 90 -49 181 -92 283 -134 21 -9 49 -16 62 -16 12 0
26 -4 29 -10 3 -5 16 -10 28 -10 12 0 42 -7 66 -15 24 -9 55 -17 70 -20 14 -2
53 -8 86 -13 33 -6 74 -8 90 -6 17 2 45 5 63 6 17 0 32 5 32 10 0 5 4 7 9 3 6
-3 15 3 21 15 8 16 5 30 -16 72 -29 56 -64 111 -76 116 -5 2 -8 9 -8 15 0 7
-11 25 -25 41 -13 16 -27 37 -30 47 -4 11 -10 19 -15 19 -5 0 -17 16 -26 35
-9 19 -21 35 -28 35 -6 0 -16 11 -23 25 -6 14 -9 25 -7 25 16 0 98 -46 118
-67 14 -14 30 -22 35 -19 5 4 45 -13 88 -37 43 -23 94 -51 113 -61 19 -9 58
-31 85 -47 28 -16 66 -37 85 -45 19 -9 37 -19 40 -23 3 -4 21 -15 40 -24 19
-10 54 -29 78 -43 30 -18 46 -22 55 -14 46 40 61 50 71 50 6 0 34 3 61 6 45 5
53 3 82 -23 42 -38 69 -100 72 -171 1 -10 8 -9 31 5 17 9 30 20 30 23 0 3 23
14 50 25 46 18 50 22 45 45 -4 14 -9 45 -12 69 -3 24 -13 66 -23 94 -21 58
-17 70 42 124 20 19 40 44 44 56 6 20 14 32 44 65 8 10 14 26 12 36 -3 11 0
16 7 12 10 -7 36 39 33 57 -1 4 3 7 8 7 6 0 10 6 10 13 0 6 7 25 15 41 8 15
12 32 9 37 -3 5 0 9 5 9 6 0 11 8 11 17 0 9 9 36 21 60 11 23 22 57 24 75 2
18 11 53 20 78 9 25 18 54 20 65 2 11 10 43 19 70 9 28 19 82 22 122 l5 72
-33 18 c-18 9 -42 18 -53 20 -60 7 -84 11 -95 18 -7 4 -28 9 -47 10 -19 1 -38
7 -42 13 -4 7 -17 10 -29 7 -12 -2 -24 0 -27 6 -4 5 -30 9 -60 9 -30 0 -56 4
-60 9 -3 5 -18 9 -34 9 -15 -1 -34 3 -42 8 -7 4 -31 10 -52 12 -21 2 -51 8
-65 14 -15 6 -29 12 -32 12 -3 1 -24 7 -47 15 l-42 14 20 28 c11 16 26 29 33
29 6 0 20 14 29 30 10 17 25 30 33 30 8 0 14 7 14 17 0 9 3 14 6 10 8 -7 31
17 74 78 47 65 78 134 84 182 2 21 5 39 6 41 16 21 -11 72 -50 92 -14 7 -29
19 -35 26 -5 7 -17 14 -25 16 -8 2 -23 11 -33 20 -11 9 -33 20 -48 23 -16 4
-42 13 -58 21 -15 8 -40 15 -55 16 -15 1 -32 8 -37 14 -5 7 -18 10 -28 7 -11
-3 -28 0 -40 6 -14 8 -21 8 -21 1 0 -9 -35 5 -50 20 -11 11 -30 9 -30 -2 0 -6
-7 -4 -18 5 -10 10 -22 14 -26 10 -4 -4 -17 4 -29 18 -12 14 -28 24 -36 21
-10 -3 -12 0 -8 12 4 11 1 16 -11 16 -9 0 -23 9 -30 20 -7 11 -18 20 -26 20
-7 0 -26 11 -42 25 -16 14 -35 23 -41 20 -7 -2 -13 0 -13 5 0 5 -7 7 -15 4
-11 -5 -13 -2 -8 12 5 13 3 16 -10 11 -10 -4 -17 -2 -17 4 0 6 -8 9 -18 7 -10
-3 -27 1 -37 8 -10 8 -31 14 -45 14 -14 0 -30 4 -35 9 -6 4 -41 13 -80 19 -38
7 -81 14 -95 17 -32 7 -177 8 -188 1 -4 -3 -26 -7 -48 -10 -21 -2 -46 -6 -54
-9 -8 -2 -12 -2 -7 0 4 3 7 13 7 24 0 10 5 19 11 19 6 0 9 7 5 15 -3 8 1 20 8
27 7 7 12 23 11 36 -1 12 2 22 6 22 4 0 7 12 6 28 -2 15 3 33 10 40 7 7 14 27
14 43 2 40 3 46 10 53 3 4 4 29 2 56 -1 28 1 50 6 50 4 0 8 21 8 48 0 26 3 87
7 136 9 117 0 143 -57 148 -29 3 -45 0 -53 -10 -6 -8 -16 -12 -21 -9 -26 16
-305 4 -311 -13 -2 -6 -11 -6 -22 0 -11 6 -21 6 -24 1 -4 -5 -25 -12 -49 -16
-23 -4 -49 -11 -57 -15 -8 -4 -33 -11 -54 -14 -22 -4 -44 -11 -51 -16 -6 -5
-19 -8 -30 -6 -10 1 -27 -4 -37 -13 -10 -9 -22 -17 -26 -17 -26 -5 -51 -17
-47 -23 2 -4 -6 -7 -18 -6 -12 1 -30 -7 -41 -17 -11 -10 -26 -18 -33 -18 -19
0 -92 -53 -93 -67 0 -7 -8 -13 -18 -13 -9 0 -30 -13 -45 -30 -16 -16 -34 -30
-41 -30 -7 0 -23 -13 -36 -30 -13 -16 -29 -30 -37 -30 -8 0 -12 -4 -9 -8 2 -4
-4 -13 -14 -19 -16 -11 -18 -9 -14 15 2 15 6 64 8 109 3 46 8 87 11 93 3 5 1
10 -5 10 -6 0 -4 8 6 18 14 14 15 18 3 20 -10 2 -14 18 -13 63 0 33 -3 62 -8
65 -4 3 -8 16 -8 30 0 30 -14 45 -57 63 -35 14 -94 12 -105 -4 -5 -6 -8 -5 -8
3 0 9 -8 8 -32 -5 -18 -9 -42 -18 -52 -20 -11 -2 -27 -10 -36 -18 -9 -8 -20
-12 -24 -8 -4 4 -12 0 -17 -10 -6 -9 -17 -17 -24 -17 -8 0 -15 -5 -15 -11 0
-6 -7 -9 -15 -5 -8 3 -21 -4 -30 -17 -8 -12 -15 -17 -15 -12 0 6 -5 2 -11 -7
-5 -10 -16 -18 -24 -18 -8 0 -19 -9 -25 -20 -6 -11 -22 -23 -35 -26 -14 -3
-25 -12 -25 -20 0 -8 -4 -14 -8 -14 -17 0 -182 -176 -182 -195 0 -7 -11 -20
-25 -29 -14 -9 -25 -23 -25 -32 0 -8 -7 -17 -15 -20 -8 -4 -15 -11 -15 -16 0
-5 -10 -24 -22 -41 -13 -18 -21 -34 -20 -35 2 -2 1 -7 -3 -10 -4 -4 -5 -2 -4
3 2 6 -2 20 -9 33 -7 12 -10 22 -7 22 8 0 -63 130 -91 167 -13 17 -24 36 -24
41 0 6 -7 13 -15 16 -9 3 -21 19 -26 36 -6 16 -18 30 -26 30 -8 0 -11 5 -8 10
3 6 1 10 -5 10 -12 0 -40 24 -40 35 0 6 -30 36 -102 100 -48 42 -105 85 -115
85 -4 0 -20 11 -35 24 -14 14 -29 22 -32 19 -3 -4 -6 -2 -6 4 0 6 -8 13 -17
17 -10 3 -25 10 -33 15 -20 13 -53 25 -62 23 -5 -1 -8 3 -8 10 0 6 -3 8 -7 5
-3 -4 -11 -3 -17 2 -6 5 -27 11 -46 15 -29 5 -38 2 -48 -14z m109 -72 c3 -6
10 -9 15 -9 17 2 74 -21 74 -29 0 -4 14 -13 30 -19 17 -5 30 -15 30 -20 0 -6
-19 -2 -42 8 -56 24 -147 45 -156 36 -4 -3 -30 -77 -59 -163 -76 -232 -129
-381 -136 -389 -4 -3 -7 -15 -7 -25 0 -10 -7 -18 -15 -18 -17 0 -14 41 3 63 5
7 8 21 6 32 -2 11 4 31 12 43 9 14 13 34 10 47 -4 14 0 27 9 35 8 7 12 16 9
21 -3 5 2 29 11 55 8 25 13 50 10 55 -8 11 24 79 37 79 5 0 8 8 7 18 -4 45 2
72 16 72 9 0 15 9 15 21 0 11 9 34 21 50 14 20 16 29 7 29 -8 1 -6 6 6 15 19
15 76 10 87 -7z m1440 -78 c15 -9 17 -13 7 -24 -7 -8 -16 -12 -20 -10 -24 15
-321 -187 -442 -298 -73 -69 -107 -94 -92 -70 3 6 2 13 -3 17 -6 3 -8 -4 -6
-16 5 -23 -41 -92 -55 -84 -5 3 -10 -5 -12 -17 -2 -13 -9 -22 -15 -21 -7 2
-15 -6 -18 -17 -4 -11 -10 -20 -16 -20 -8 0 22 61 43 88 6 6 8 12 5 12 -3 0 8
13 24 29 16 16 29 36 29 43 0 8 14 22 31 32 17 10 37 32 45 50 7 17 13 27 14
22 0 -11 50 42 50 53 0 4 9 12 19 17 23 11 132 111 131 120 -1 8 48 34 66 34
8 0 22 7 31 15 10 8 20 14 23 13 3 -1 16 5 30 12 14 8 30 13 37 12 6 -1 14 1
16 5 8 13 56 14 78 3z m15 -55 c0 -14 -4 -25 -8 -25 -10 0 -10 13 -2 34 9 23
12 20 10 -9z m1224 -26 c25 -3 38 -19 33 -39 -3 -11 -1 -20 3 -20 5 0 9 -18 9
-40 0 -24 -4 -39 -10 -36 -7 2 -9 -9 -7 -29 2 -18 -1 -36 -7 -39 -6 -4 -11
-27 -11 -51 0 -24 -4 -47 -10 -50 -5 -3 -10 -18 -10 -33 0 -19 -3 -23 -9 -14
-6 11 -10 10 -15 -5 -28 -83 -33 -104 -25 -109 14 -9 0 -24 -16 -17 -9 3 -15
-1 -15 -11 0 -9 -13 -42 -30 -73 -26 -50 -30 -54 -30 -30 0 16 -4 26 -9 23 -5
-3 -7 -16 -5 -29 2 -12 2 -16 -2 -9 -3 6 -12 12 -20 12 -8 0 -14 7 -14 16 0 8
-4 12 -10 9 -5 -3 -10 -1 -10 4 0 6 -11 11 -25 11 -15 0 -39 7 -55 15 -17 9
-30 13 -30 10 0 -4 -7 0 -15 9 -8 8 -15 19 -15 25 0 5 -9 12 -19 16 -11 3 -36
21 -56 40 -21 18 -49 38 -64 45 -14 6 -36 26 -49 45 -12 19 -29 35 -38 35 -9
0 -35 16 -58 35 -41 33 -86 46 -86 25 0 -5 -8 -10 -17 -10 -15 0 -14 2 3 18
11 11 26 22 34 26 24 10 -22 -1 -60 -16 -43 -16 -199 -109 -260 -156 -55 -41
-68 -23 -21 29 17 18 31 30 31 26 0 -4 9 2 20 13 11 11 20 25 20 30 0 6 7 10
15 10 8 0 15 5 15 10 0 6 11 15 25 22 13 6 22 15 19 19 -3 5 3 9 14 9 10 0 32
11 48 25 16 14 35 25 42 25 6 0 12 5 12 11 0 5 5 7 10 4 6 -3 10 -1 10 4 0 6
8 11 18 11 10 0 28 9 40 20 12 11 31 22 44 24 13 3 24 5 26 7 1 1 5 2 10 3 4
1 12 4 17 8 10 6 86 29 115 34 8 2 16 8 18 13 2 7 15 8 29 5 16 -4 24 -3 20 3
-4 6 12 9 41 8 26 -2 52 1 57 5 6 4 37 10 69 14 33 3 61 8 63 10 3 3 169 -1
203 -5z m-1213 -25 c-3 -3 -12 -4 -19 -1 -8 3 -5 6 6 6 11 1 17 -2 13 -5z
m530 -250 c-3 -3 -12 -4 -19 -1 -8 3 -5 6 6 6 11 1 17 -2 13 -5z m-2257 -212
c0 -5 -7 -9 -15 -9 -8 0 -15 4 -15 9 0 4 7 8 15 8 8 0 15 -4 15 -8z m-36 -67
c-4 -8 -8 -15 -10 -15 -2 0 -4 7 -4 15 0 8 4 15 10 15 5 0 7 -7 4 -15z m-33
-64 c-7 -5 -10 -14 -7 -20 4 -6 4 -11 -1 -10 -20 3 -27 -2 -13 -11 10 -6 11
-10 3 -10 -7 0 -13 -7 -13 -15 0 -8 -5 -15 -12 -15 -6 0 -8 -3 -5 -6 8 -9 -11
-44 -24 -44 -6 0 -7 5 -3 12 4 7 3 8 -4 4 -6 -4 -9 -13 -6 -21 4 -8 10 -12 15
-9 5 3 4 -6 -2 -20 -7 -14 -16 -23 -20 -20 -5 3 -9 -1 -10 -8 -2 -47 -32 -101
-46 -87 -8 8 -13 7 -18 -2 -5 -8 -4 -10 3 -5 29 17 0 -66 -37 -108 -9 -10 -15
-21 -13 -25 1 -3 -4 -6 -10 -6 -7 0 -14 -6 -14 -12 -3 -24 -4 -25 -19 -13 -9
7 -13 20 -10 29 5 13 4 13 -6 4 -10 -10 -9 -17 6 -33 15 -17 16 -22 4 -37 -26
-36 -57 -62 -64 -55 -5 4 -6 -3 -3 -15 5 -17 -1 -24 -23 -34 -17 -6 -32 -9
-36 -5 -3 3 1 6 10 6 10 0 14 5 11 15 -7 18 12 20 20 3 3 -7 3 -3 0 10 -4 15
2 32 19 51 13 16 24 40 23 53 -1 13 6 31 16 42 9 10 14 24 11 32 -3 9 1 14 12
14 9 0 14 4 10 10 -7 12 33 53 45 45 6 -3 7 1 4 10 -7 18 14 47 28 39 6 -4 5
3 -2 16 -10 19 -9 22 10 27 13 4 23 16 27 34 3 16 10 29 15 29 6 0 8 6 5 14
-4 9 6 24 23 37 16 13 26 27 24 31 -3 4 4 16 16 28 11 11 18 20 15 20 -13 0
32 38 45 39 12 1 13 -1 1 -8z m3354 -96 c11 -1 28 -5 38 -10 10 -4 26 -9 35
-10 10 -1 31 -7 47 -13 17 -7 36 -15 43 -17 6 -2 12 -9 12 -14 0 -6 7 -8 15
-5 8 4 15 1 15 -5 0 -6 6 -11 13 -11 8 0 24 -9 37 -20 21 -18 34 -24 51 -22 4
1 18 -9 31 -21 13 -12 31 -21 41 -19 9 2 17 -2 17 -8 0 -6 14 -16 30 -21 17
-6 30 -15 30 -20 0 -5 8 -9 18 -9 28 -1 53 -25 40 -38 -9 -9 -4 -12 20 -12 20
0 35 -6 38 -15 5 -13 9 -13 35 1 24 12 33 12 52 2 12 -7 27 -11 33 -10 7 1 25
-3 40 -9 16 -7 33 -11 37 -11 4 1 29 -7 54 -19 26 -12 52 -22 58 -23 42 -8
148 -73 140 -87 -4 -5 -1 -9 6 -9 7 0 9 -3 6 -7 -4 -3 -3 -11 3 -17 5 -7 5
-17 0 -26 -9 -13 -10 -13 -11 0 -1 8 -1 18 0 23 1 4 -12 10 -29 14 -17 3 -33
10 -36 14 -10 17 -34 10 -27 -8 4 -11 3 -14 -6 -9 -7 5 -9 16 -5 28 5 17 3 20
-10 15 -9 -4 -16 -2 -16 4 0 6 -7 9 -15 5 -8 -3 -15 -2 -15 3 0 7 -55 22 -95
26 -5 0 -14 3 -20 7 -16 10 -127 28 -136 22 -5 -3 -9 -1 -9 5 0 6 -16 13 -35
17 -20 3 -44 17 -54 30 -10 13 -22 24 -25 24 -4 0 -41 21 -83 47 -42 25 -83
46 -90 46 -7 0 -11 3 -8 6 12 12 -203 100 -253 103 -15 1 -33 6 -39 11 -8 6
-24 5 -42 -3 -17 -7 -36 -10 -43 -7 -7 3 -3 6 10 6 35 1 26 21 -10 21 -18 0
-70 3 -115 6 -46 3 -83 2 -83 -3 0 -4 -20 -9 -45 -10 -24 -1 -53 -7 -64 -12
-16 -9 -19 -8 -16 7 2 9 4 19 4 22 2 9 64 37 106 48 33 8 187 7 280 -3z m2
-91 c-3 -3 -12 -4 -19 -1 -8 3 -5 6 6 6 11 1 17 -2 13 -5z m-3737 -449 c-7 -9
-15 -13 -17 -11 -6 6 20 36 26 30 2 -2 -2 -10 -9 -19z m-511 -467 c-6 -13 -17
-30 -25 -38 -7 -8 -13 -18 -13 -23 -1 -39 -16 -77 -30 -78 -9 0 -11 -3 -5 -5
8 -3 6 -17 -7 -43 -10 -21 -23 -59 -30 -84 -6 -26 -17 -52 -25 -58 -8 -6 -14
-17 -14 -23 0 -6 5 -4 10 4 5 8 10 10 10 5 0 -6 -4 -15 -9 -20 -12 -13 -77
-262 -92 -352 -7 -40 -15 -73 -19 -73 -7 0 -7 5 4 97 5 35 8 66 8 70 0 5 4 15
8 24 5 8 5 21 0 29 -5 9 -5 20 2 27 6 8 8 16 5 20 -3 3 1 19 9 35 9 17 13 39
10 50 -2 11 2 31 11 45 15 22 18 33 25 88 2 11 8 23 13 27 6 4 11 18 12 30 2
25 6 45 16 68 7 15 15 55 16 78 1 7 5 11 10 7 11 -6 61 55 61 73 0 7 5 11 12
10 7 -2 13 3 14 10 3 20 4 22 14 22 7 0 7 -8 -1 -22z m5121 -8 c0 -3 8 -6 18
-6 49 -2 111 -13 131 -23 12 -7 25 -9 30 -7 5 3 25 -1 46 -10 20 -8 45 -12 56
-9 12 4 31 -2 49 -15 17 -12 30 -17 30 -12 0 13 33 10 42 -4 4 -7 23 -11 42
-9 24 1 37 -3 41 -13 4 -11 9 -12 16 -5 7 7 21 8 38 3 14 -5 38 -11 52 -14 25
-6 47 -44 40 -71 -2 -5 -5 -25 -6 -43 -2 -18 -7 -47 -11 -65 -4 -18 -8 -34 -9
-37 -4 -21 -29 -87 -35 -94 -5 -5 -6 -14 -4 -21 3 -7 1 -16 -5 -20 -6 -3 -11
-15 -11 -26 0 -10 -4 -19 -10 -19 -5 0 -10 -5 -10 -12 0 -18 -34 -87 -43 -88
-4 0 -4 8 2 18 8 16 37 157 46 227 3 16 8 53 13 80 5 28 10 57 10 65 -1 8 1
21 3 29 5 17 -99 49 -172 53 -26 2 -45 7 -42 11 3 5 -1 7 -8 6 -8 -1 -21 1
-29 4 -8 3 -62 18 -120 32 -58 15 -112 29 -120 32 -8 3 -26 8 -40 10 -13 2
-28 9 -31 15 -4 6 -11 8 -15 5 -5 -3 -9 5 -9 17 0 13 6 23 13 23 6 0 12 -3 12
-7z m-183 -317 c7 -6 13 -15 13 -20 0 -4 12 -19 25 -32 14 -13 25 -28 25 -35
0 -6 8 -19 18 -28 17 -15 34 -37 59 -75 49 -72 63 -95 63 -103 0 -6 4 -10 9
-10 5 0 13 -10 16 -22 4 -13 21 -44 37 -70 17 -26 26 -53 22 -59 -4 -8 -3 -9
4 -5 7 4 12 2 12 -4 0 -7 9 -23 20 -37 11 -14 17 -29 15 -33 -3 -5 -1 -11 5
-15 5 -3 10 -15 10 -25 0 -10 5 -20 10 -22 6 -2 12 -12 15 -23 10 -44 30 -95
37 -95 5 0 8 -10 8 -22 0 -16 -9 -7 -29 32 -69 131 -106 197 -129 228 -13 17
-20 32 -16 32 5 0 4 4 -1 8 -24 17 -77 113 -71 128 5 13 4 14 -7 6 -11 -9 -17
-4 -30 24 -10 19 -15 40 -12 45 3 5 0 6 -7 4 -15 -6 -52 48 -41 59 3 3 1 6 -5
6 -5 0 -21 17 -33 38 -13 20 -25 39 -29 42 -18 17 -60 89 -60 104 0 19 10 15
47 -21z m-3437 -133 c0 -5 -2 -10 -4 -10 -3 0 -8 5 -11 10 -3 6 -1 10 4 10 6
0 11 -4 11 -10z m-325 -9 c3 -5 2 -12 -3 -15 -5 -3 -9 1 -9 9 0 17 3 19 12 6z
m369 -7 c6 -15 4 -15 -11 -3 -10 7 -20 15 -22 16 -2 2 3 3 11 3 9 0 19 -7 22
-16z m-385 -21 c17 -18 57 -195 47 -211 -2 -4 0 -29 6 -56 7 -34 7 -51 -1 -59
-6 -6 -11 -24 -11 -39 0 -21 -5 -28 -20 -28 -24 0 -60 37 -60 62 0 11 -4 16
-10 13 -6 -3 -7 1 -4 10 4 8 2 21 -4 28 -6 6 -13 30 -17 52 -8 48 -7 208 1
230 8 20 51 19 73 -2z m367 5 c4 -6 2 -14 -4 -16 -7 -2 -10 -8 -6 -13 8 -14
-6 -10 -22 6 -14 13 -13 15 8 16 22 0 22 1 3 9 -16 7 -17 9 -3 9 9 1 20 -4 24
-11z m-185 -18 c7 25 7 24 9 -5 2 -30 2 -30 10 -5 7 21 8 19 9 -17 1 -24 6
-43 11 -43 13 0 2 -99 -13 -117 -29 -38 -58 16 -62 117 -2 46 1 78 6 74 5 -3
10 1 10 8 1 7 4 2 7 -12 l5 -25 8 25z m4265 -60 c0 -12 -4 -16 -9 -11 -5 5 -6
14 -3 20 10 15 12 14 12 -9z m-68 -195 c-3 -3 -9 2 -12 12 -6 14 -5 15 5 6 7
-7 10 -15 7 -18z m-5788 -66 c0 -17 -4 -28 -10 -24 -5 3 -8 16 -6 28 6 28 5
27 11 27 3 0 5 -14 5 -31z m5704 -70 c-3 -5 -10 -7 -15 -3 -5 3 -7 10 -3 15 3
5 10 7 15 3 5 -3 7 -10 3 -15z m-5727 -201 c-3 -8 -6 -5 -6 6 -1 11 2 17 5 13
3 -3 4 -12 1 -19z m5673 -59 c0 -6 -4 -7 -10 -4 -5 3 -10 11 -10 16 0 6 5 7
10 4 6 -3 10 -11 10 -16z m-4170 -325 c6 -19 16 -34 21 -34 14 0 48 -33 43
-42 -3 -4 2 -8 10 -8 9 0 16 -6 16 -13 0 -7 10 -28 23 -47 12 -19 29 -53 36
-75 8 -22 18 -51 24 -65 10 -26 17 -54 18 -80 0 -8 3 -22 6 -30 8 -20 8 -19
18 -70 4 -25 9 -58 11 -75 1 -16 3 -30 4 -30 2 0 4 -38 5 -85 2 -62 -2 -98
-15 -132 -10 -26 -15 -49 -12 -52 3 -4 0 -6 -6 -6 -7 0 -12 -9 -12 -20 0 -12
-7 -34 -15 -51 -9 -16 -14 -33 -11 -37 2 -4 -10 -19 -27 -32 -43 -34 -127
-121 -127 -131 0 -5 -3 -9 -7 -9 -11 0 -33 51 -27 61 3 5 0 9 -5 9 -6 0 -10 3
-9 8 3 16 -16 68 -39 100 -12 19 -23 41 -23 48 0 8 -4 14 -9 14 -5 0 -12 11
-15 25 -4 14 -10 25 -15 25 -5 0 -12 14 -16 30 -4 17 -10 30 -13 30 -4 0 -8
19 -9 43 -1 23 -8 71 -15 107 -13 60 -15 153 -4 275 12 143 77 319 136 371 31
27 46 22 60 -22z m664 35 c-2 -4 4 -14 14 -21 33 -24 55 -96 47 -158 -13 -102
-15 -115 -25 -165 -6 -27 -12 -60 -14 -71 -2 -12 -9 -31 -15 -42 -6 -11 -11
-29 -11 -40 0 -11 -7 -33 -15 -48 -8 -16 -15 -37 -15 -46 0 -10 -5 -18 -10
-18 -6 0 -10 -6 -8 -13 3 -14 -32 -90 -44 -95 -5 -2 -8 -10 -8 -19 0 -8 -8
-25 -17 -38 -10 -12 -25 -33 -33 -45 -8 -13 -22 -30 -31 -39 -9 -9 -21 -25
-26 -35 -12 -22 -26 -26 -103 -29 -30 -2 -61 -6 -67 -10 -7 -5 -13 -4 -13 2 0
6 -6 10 -12 8 -7 -1 -11 5 -9 13 2 8 5 22 6 30 2 8 4 15 5 15 13 0 19 189 9
275 -16 127 -23 167 -31 176 -11 10 49 144 64 144 5 0 8 4 8 9 0 20 158 186
168 176 2 -2 14 7 27 20 12 14 25 22 28 18 4 -3 19 6 33 20 15 15 29 25 33 23
3 -2 15 0 26 4 25 9 45 9 39 -1z m-2030 -405 c3 -8 2 -12 -4 -9 -6 3 -10 10
-10 16 0 14 7 11 14 -7z m2961 -23 c-3 -6 -11 -11 -17 -11 -6 0 -6 6 2 15 14
17 26 13 15 -4z m-2942 -21 c3 -11 3 -20 1 -20 -2 0 -8 9 -14 20 -6 11 -7 20
-2 20 6 0 12 -9 15 -20z m21 -45 c3 -8 1 -15 -3 -15 -5 0 -11 7 -15 15 -3 8
-1 15 3 15 5 0 11 -7 15 -15z m31 -94 c-3 -6 3 -14 12 -20 17 -10 17 -10 1
-11 -10 0 -18 2 -18 4 0 2 -3 11 -6 20 -3 9 -1 16 6 16 6 0 9 -4 5 -9z m916
-143 c34 4 102 -31 125 -65 11 -14 27 -33 37 -42 9 -8 17 -21 17 -28 0 -7 3
-13 8 -13 8 0 11 -6 51 -84 13 -25 27 -49 32 -52 5 -3 9 -16 9 -30 0 -13 5
-24 10 -24 6 0 10 -11 10 -25 0 -14 5 -25 10 -25 6 0 10 -8 10 -18 0 -10 7
-27 15 -39 13 -19 13 -23 -5 -46 -11 -14 -20 -28 -20 -32 0 -3 -10 -17 -23
-30 -12 -14 -31 -48 -42 -75 -11 -28 -23 -50 -28 -50 -5 0 -7 -7 -3 -15 3 -8
2 -15 -3 -15 -8 0 -29 -61 -38 -110 -2 -14 -8 -42 -13 -64 -5 -21 -6 -45 -3
-53 3 -8 1 -18 -6 -22 -9 -6 -9 -15 -1 -36 8 -20 7 -31 -2 -42 -10 -12 -14
-11 -25 10 -7 14 -27 41 -45 60 -51 55 -55 61 -106 150 -47 81 -62 111 -68
132 -1 6 -9 29 -17 52 -9 22 -13 44 -10 47 3 3 0 12 -7 21 -20 24 -30 221 -17
305 4 19 9 51 11 70 11 77 18 106 28 118 6 6 7 12 2 12 -5 0 2 7 14 16 12 8
22 21 22 29 0 15 20 25 35 17 5 -4 22 -5 36 -4z m662 -287 c27 3 57 -14 57
-32 0 -11 5 -19 12 -19 6 0 8 -3 5 -6 -3 -4 -2 -15 4 -26 6 -10 12 -40 15 -66
3 -26 7 -52 9 -59 13 -41 -91 -273 -116 -257 -5 3 -9 -6 -9 -20 0 -27 -41 -63
-59 -51 -7 3 -8 0 -5 -10 5 -11 2 -14 -10 -9 -11 4 -16 1 -16 -10 0 -9 -8 -16
-18 -16 -10 0 -28 -11 -39 -24 -11 -13 -25 -25 -30 -27 -6 -2 -16 -17 -24 -34
-8 -16 -18 -28 -23 -27 -5 2 -13 -3 -18 -12 -5 -9 -15 -16 -21 -16 -7 0 -19
-10 -27 -22 -8 -11 -23 -28 -32 -37 -10 -8 -18 -24 -18 -34 0 -9 -7 -20 -15
-23 -7 -3 -22 -26 -31 -50 -9 -24 -19 -44 -23 -44 -11 0 -29 50 -24 69 3 10 0
22 -6 25 -7 5 -7 15 -1 32 6 14 6 23 1 20 -13 -8 -19 14 -15 54 10 116 15 144
33 194 10 30 17 57 14 60 -3 3 7 26 21 51 15 25 23 45 19 45 -4 0 -1 6 8 13
16 12 34 43 64 105 9 18 22 35 30 39 8 3 15 13 15 22 1 15 32 61 43 61 2 0 37
32 77 70 77 75 132 108 138 83 2 -7 9 -13 15 -12z m2738 -1275 c23 14 81 -42
131 -125 36 -59 36 -74 3 -59 -14 6 -25 15 -25 20 0 4 -5 8 -11 8 -6 0 -17 7
-26 15 -8 8 -19 13 -24 10 -5 -4 -9 1 -9 9 0 9 -8 16 -19 16 -19 0 -36 25 -32
48 1 6 -2 12 -6 12 -4 0 -8 16 -9 36 0 26 2 31 8 19 5 -8 14 -13 19 -9z m-77
-8 c8 -12 13 -25 10 -30 -3 -4 -1 -8 5 -8 6 0 9 -14 7 -30 -2 -17 1 -33 5 -36
5 -3 4 -14 -1 -25 -14 -26 -5 -39 27 -39 27 0 78 -14 123 -34 72 -32 146 -167
155 -286 3 -51 14 -80 30 -80 8 0 18 -6 22 -13 4 -7 24 -23 44 -36 48 -32 92
-109 54 -95 -10 4 -15 0 -15 -15 0 -12 -5 -21 -11 -21 -5 0 -7 -4 -4 -10 3 -5
2 -10 -3 -10 -5 0 -9 -19 -9 -43 1 -66 -8 -72 -74 -52 -12 4 -19 2 -19 -7 0
-10 -2 -10 -8 -1 -5 7 -33 14 -64 16 -40 3 -80 15 -139 44 -46 22 -94 44 -106
47 -13 4 -23 12 -23 17 0 5 -5 9 -11 9 -12 0 -102 61 -107 73 -2 4 -9 7 -15 7
-11 0 -64 49 -114 106 -35 40 -62 82 -69 108 -3 14 -10 26 -14 26 -12 0 -26
49 -29 101 -4 75 14 122 65 170 25 24 53 52 63 62 24 23 168 97 175 90 3 -4 6
-1 6 5 0 20 28 13 44 -10z m-3030 -23 c-4 -8 -11 -15 -16 -15 -6 0 -5 6 2 15
7 8 14 15 16 15 2 0 1 -7 -2 -15z m3426 -272 c30 -18 72 -48 94 -67 37 -34 38
-37 26 -65 -7 -17 -13 -51 -13 -76 l-2 -45 -32 6 c-21 4 -33 2 -33 -5 0 -6 -5
-11 -12 -11 -6 0 -9 3 -5 6 3 4 -1 20 -9 36 -8 16 -12 32 -9 37 2 5 -2 11 -10
15 -8 3 -15 14 -15 25 0 11 -11 40 -24 65 -14 26 -23 46 -21 46 2 0 -3 16 -11
35 -13 32 -13 35 3 32 10 -1 43 -17 73 -34z m-711 -216 c18 -30 29 -44 80
-102 9 -11 38 -36 63 -55 l46 -35 -5 -60 c-5 -67 -22 -115 -40 -115 -7 0 -13
4 -13 9 0 5 -22 31 -49 58 -40 41 -50 58 -55 94 -2 24 -12 73 -21 109 -10 36
-18 72 -20 80 -2 8 -4 15 -5 15 -1 0 -3 8 -5 18 -5 25 1 21 24 -16z m-811 -74
c99 -5 102 -6 86 -24 -9 -11 -23 -19 -31 -19 -14 0 -17 -9 -5 -25 9 -14 69
-18 76 -6 8 12 100 4 146 -11 19 -7 37 -13 40 -13 41 -10 60 -19 60 -26 0 -5
4 -8 9 -7 15 5 124 -103 149 -146 l23 -39 -28 -27 c-55 -53 -249 -256 -286
-300 -48 -56 -136 -188 -174 -259 -16 -30 -34 -56 -40 -58 -5 -2 -33 12 -61
32 -50 34 -52 35 -70 17 -18 -18 -18 -19 15 -40 18 -12 39 -22 47 -22 8 0 23
-10 33 -23 10 -12 36 -36 58 -52 22 -17 49 -40 61 -52 12 -13 26 -23 33 -23 6
0 11 -3 11 -7 0 -5 14 -23 31 -40 16 -18 25 -34 20 -34 -14 -2 -23 -4 -41 -12
-8 -3 -33 -13 -55 -20 -22 -8 -107 -45 -188 -82 -82 -37 -154 -68 -160 -69 -7
-1 -32 -9 -57 -18 -65 -23 -121 -39 -150 -42 -35 -4 -81 -17 -105 -30 -22 -13
-28 -13 -99 -1 l-48 8 7 46 c4 25 7 64 6 86 -1 45 18 165 49 305 12 52 24 109
27 125 3 17 10 36 15 43 7 8 6 12 -3 12 -11 1 -11 3 1 13 8 7 15 24 14 40 -1
15 3 27 7 27 5 0 9 11 9 24 0 13 11 39 24 59 13 19 22 38 19 41 -3 2 -1 11 3
18 5 7 10 24 12 38 2 14 10 32 18 41 8 8 11 18 8 22 -3 3 4 20 16 36 12 17 18
31 13 31 -4 0 -2 4 6 9 7 5 14 20 14 35 0 14 3 26 8 26 5 0 9 6 9 14 0 8 3 16
8 18 4 2 30 47 57 102 28 54 68 117 90 140 58 61 105 119 105 129 0 5 12 6 28
3 15 -4 73 -10 130 -13z m976 -306 c3 10 6 23 7 28 1 6 11 16 21 24 17 12 21
12 29 0 8 -14 13 -44 10 -63 -1 -5 1 -16 5 -25 10 -25 12 -84 3 -107 -5 -14
-3 -26 6 -35 8 -8 16 -23 17 -34 2 -11 7 -26 11 -32 12 -18 -10 -132 -35 -180
-13 -27 -28 -43 -39 -43 -10 0 -44 24 -75 53 -42 39 -58 61 -59 83 -1 16 -3
34 -5 39 -1 6 -2 40 -1 78 1 65 2 67 21 55 12 -7 34 -37 50 -65 17 -29 36 -53
43 -53 15 0 60 68 54 83 -2 7 -13 -5 -23 -26 -19 -40 -35 -44 -44 -10 -3 12
-22 40 -43 64 -39 43 -59 98 -71 202 l-6 49 59 -51 c50 -44 60 -49 65 -34z
m-166 -319 c29 -35 84 -109 123 -165 38 -57 74 -103 78 -103 4 0 23 -24 42
-52 36 -57 69 -98 111 -138 l26 -26 -33 -27 c-18 -14 -67 -75 -110 -136 l-77
-111 -28 23 c-15 12 -27 24 -26 27 3 16 -127 120 -151 120 -6 0 -32 10 -58 21
-42 19 -76 26 -160 33 -11 1 -49 -6 -85 -16 -36 -10 -70 -20 -77 -21 -7 -2
-16 -6 -19 -10 -13 -13 -42 -7 -78 14 -39 23 -41 37 -11 84 43 71 71 111 87
130 9 11 54 65 100 120 161 194 256 295 277 295 9 0 41 -28 69 -62z m972 18
c59 -39 94 -118 85 -194 -12 -96 -40 -119 -112 -91 -25 10 -81 11 -196 5 -21
-1 -41 3 -46 9 -14 19 -7 139 10 170 9 17 24 45 34 64 37 71 146 89 225 37z
m-478 -190 c54 -31 116 -92 139 -140 22 -45 27 -134 9 -180 -5 -14 -8 -26 -6
-26 3 0 -6 -20 -19 -45 -26 -48 -18 -69 16 -39 17 16 24 13 20 -9 -1 -5 3 -6
7 -3 5 3 8 21 5 40 -2 19 1 37 7 41 6 4 8 11 4 16 -3 6 2 19 12 30 13 14 14
18 3 14 -11 -4 -14 9 -14 77 l1 83 49 12 c38 10 52 10 64 0 12 -9 13 -9 7 1
-5 8 1 12 21 13 55 3 87 -2 95 -14 6 -9 8 -9 8 1 0 7 5 10 10 7 6 -4 7 -12 3
-18 -4 -8 -1 -8 9 1 12 10 21 10 42 1 29 -14 31 -20 14 -37 -7 -7 -16 -8 -23
-2 -8 7 -12 5 -12 -5 0 -8 4 -15 9 -15 4 0 0 -9 -10 -20 -9 -12 -17 -26 -17
-33 -1 -7 -7 -11 -14 -9 -8 1 -10 -2 -4 -10 4 -7 9 -24 11 -37 2 -19 0 -22
-15 -17 -17 6 -17 5 0 -8 10 -8 19 -18 19 -23 0 -4 5 -18 11 -30 7 -16 6 -27
-3 -38 -20 -24 -30 -17 -19 12 6 15 7 24 3 20 -4 -4 -18 0 -30 8 -21 13 -23
13 -29 -6 -5 -14 -12 -18 -23 -14 -9 3 -14 3 -10 0 8 -9 -33 -56 -43 -49 -4 2
-11 -1 -15 -7 -4 -8 -3 -9 4 -5 7 4 12 1 12 -8 0 -9 6 -16 14 -16 8 0 16 -5
18 -11 4 -12 47 4 58 22 3 4 22 19 42 33 l37 25 38 -35 c33 -30 43 -34 77 -30
28 3 35 1 27 -7 -6 -6 -11 -16 -11 -21 0 -6 5 -3 11 7 9 15 13 16 27 6 14 -11
15 -11 5 1 -18 19 -16 31 3 23 15 -6 39 -50 35 -66 -1 -5 3 -6 9 -2 8 5 8 11
0 20 -9 11 -7 12 10 8 12 -3 28 1 39 11 22 20 36 7 26 -25 -5 -14 -2 -25 6
-30 11 -7 11 -9 1 -9 -10 0 -9 -4 3 -16 11 -12 13 -20 5 -29 -8 -9 -7 -13 2
-12 7 0 27 -1 43 -2 l30 -2 -31 -28 c-17 -15 -33 -35 -37 -44 -4 -11 -14 -14
-32 -11 -21 4 -28 -1 -39 -28 -12 -27 -12 -34 0 -46 17 -17 17 -18 1 -73 -7
-24 -12 -54 -11 -67 1 -12 -3 -25 -8 -28 -4 -3 -8 -2 -7 3 1 4 1 17 0 27 -1
17 -4 16 -27 -9 l-25 -27 20 -19 c11 -11 27 -19 34 -19 8 0 17 -12 20 -26 3
-19 1 -24 -10 -20 -8 4 -26 9 -39 12 -13 3 -21 10 -18 15 3 5 -2 6 -10 3 -15
-6 -21 6 -16 31 1 6 -4 5 -10 -1 -9 -9 -19 -8 -41 5 -16 9 -29 19 -29 24 0 4
-7 7 -15 7 -8 0 -15 4 -15 8 0 4 -12 15 -27 24 -29 17 -71 78 -54 78 5 0 12
-5 14 -10 3 -6 4 -5 3 2 -2 7 -13 12 -25 11 -11 -2 -21 1 -21 6 0 12 30 22 43
15 9 -5 9 -4 1 5 -9 10 -17 10 -32 2 -28 -15 -30 -14 -34 11 -2 12 -10 23 -18
25 -13 4 -13 3 0 -7 13 -10 13 -11 0 -7 -8 2 -14 11 -14 20 1 9 -2 15 -6 12
-16 -10 -80 90 -73 115 4 12 3 12 -5 2 -7 -11 -14 -8 -31 14 -11 14 -21 29
-21 33 0 3 -16 24 -35 45 -19 22 -35 46 -35 53 0 7 -4 13 -8 13 -5 0 -31 21
-59 48 -205 193 -196 183 -201 226 -7 61 -25 89 -87 131 -39 28 -52 41 -43 47
38 26 75 41 112 45 22 2 42 6 44 7 6 7 60 -9 94 -28z m170 -30 c2 -32 6 -60
10 -63 13 -8 9 -23 -7 -23 -8 0 -20 10 -26 23 -7 12 -21 29 -31 39 -18 16 -18
17 13 52 17 20 33 35 35 34 1 -2 4 -30 6 -62z m-2102 24 c-6 -12 -14 -33 -16
-48 -7 -35 -12 -42 -41 -53 -16 -6 -23 -15 -19 -24 3 -8 -1 -20 -8 -27 -7 -7
-11 -19 -8 -26 2 -6 -2 -12 -8 -12 -6 0 -10 -6 -7 -12 2 -7 -4 -23 -15 -34
-10 -12 -20 -31 -21 -43 -1 -11 -6 -21 -11 -21 -5 0 -7 -3 -3 -6 3 -3 -3 -26
-14 -51 -11 -26 -21 -55 -24 -67 -2 -12 -4 -21 -5 -21 -2 0 -11 -38 -13 -60
-2 -24 -35 -33 -43 -12 -3 9 7 44 21 79 15 34 28 70 29 78 1 8 12 38 25 65 12
28 22 52 22 55 0 3 8 13 16 23 9 9 13 17 8 17 -4 0 0 11 9 25 9 14 13 25 9 25
-3 0 3 10 14 23 21 23 47 66 48 80 0 4 7 12 15 17 8 5 11 10 6 10 -5 0 1 11
14 25 27 29 37 26 20 -5z m1644 -19 c-2 -3 -12 3 -22 13 -16 17 -16 18 5 5 12
-7 20 -15 17 -18z m1044 -141 c-2 -6 -8 -6 -18 0 -13 9 -13 11 0 20 15 10 25
0 18 -20z m747 10 c133 -21 256 -103 308 -206 14 -28 23 -55 19 -58 -3 -4 0
-11 8 -16 17 -11 0 -13 -24 -4 -12 5 -13 10 -5 25 5 10 7 19 4 19 -15 0 -20
-3 -17 -12 1 -6 -3 -17 -9 -25 -7 -8 -8 -13 -3 -12 20 3 35 -1 30 -10 -4 -5 3
-7 14 -4 21 6 27 -4 32 -47 2 -14 7 -31 11 -37 5 -8 3 -13 -5 -14 -9 0 -10 -2
-1 -5 7 -3 10 -11 8 -17 -2 -7 -7 -29 -10 -50 -3 -21 -12 -50 -20 -65 -13 -25
-14 -25 -15 -6 0 12 -7 27 -15 34 -8 7 -15 19 -15 27 0 12 -3 12 -16 -1 -19
-19 -28 -21 -21 -3 6 16 -30 20 -39 5 -5 -7 -1 -9 9 -5 13 5 17 1 17 -15 0
-17 3 -19 12 -10 17 17 38 15 38 -4 0 -8 5 -12 10 -9 6 3 10 -3 10 -14 0 -11
4 -23 10 -26 6 -4 6 -10 0 -18 -6 -7 -19 -23 -30 -36 -11 -13 -20 -19 -20 -13
0 6 5 14 11 18 8 4 8 9 0 17 -14 14 -14 27 0 27 5 0 7 -6 3 -12 -4 -7 -3 -9 1
-5 13 12 15 36 3 44 -7 3 -8 1 -4 -5 4 -7 2 -12 -3 -12 -6 0 -11 5 -11 11 0 5
-4 7 -10 4 -5 -3 -10 -2 -10 4 0 6 -11 16 -24 23 -14 7 -25 16 -25 21 -1 4 -1
12 -1 18 0 8 -5 8 -15 -1 -12 -10 -18 -10 -30 0 -8 6 -19 9 -24 5 -6 -3 -19
-1 -28 4 -14 8 -6 10 35 11 l52 0 0 75 c0 68 -2 75 -20 75 -17 0 -20 7 -20 40
0 22 -4 40 -10 40 -5 0 -10 18 -10 40 0 40 4 44 46 43 6 0 11 5 11 12 0 8 -7
11 -15 7 -9 -3 -13 -1 -9 4 3 6 -3 15 -14 22 -11 7 -19 8 -19 2 0 -5 -5 -10
-11 -10 -6 0 -8 7 -5 16 4 9 2 13 -5 8 -6 -4 -15 0 -20 7 -4 7 -12 10 -16 5
-4 -4 1 -15 12 -24 11 -10 26 -25 34 -35 12 -15 11 -17 -13 -17 -15 0 -25 4
-21 10 7 12 -32 53 -44 45 -5 -2 -11 2 -14 10 -4 9 -1 12 9 8 7 -3 14 -1 14 4
0 5 -11 9 -25 9 -26 0 -34 -20 -12 -30 9 -5 9 -7 0 -12 -8 -3 -11 -15 -7 -29
3 -12 1 -26 -5 -29 -7 -5 -8 -1 -4 11 4 10 -7 2 -24 -17 -17 -19 -29 -37 -26
-40 3 -3 8 1 10 8 3 6 10 12 16 12 20 0 -13 -25 -36 -27 -12 -1 -37 -4 -55 -7
-43 -7 -106 18 -122 50 -8 14 -20 22 -27 20 -7 -3 -15 0 -19 6 -4 6 -3 8 3 5
6 -4 10 11 11 38 0 51 -6 54 -57 23 -47 -29 -58 -41 -54 -54 2 -6 -6 -11 -19
-10 -28 1 -37 33 -11 43 10 4 26 17 36 30 10 13 22 21 27 18 4 -3 13 2 20 10
7 8 16 13 20 10 4 -3 13 2 20 10 7 8 21 15 31 15 11 0 19 4 19 9 0 20 114 21
235 1z m-806 -41 c29 -27 35 -60 18 -102 -44 -105 -182 -80 -182 33 0 96 93
135 164 69z m236 6 c16 -13 27 -26 24 -29 -6 -7 -69 34 -69 45 0 15 13 10 45
-16z m-2911 -22 c-11 -35 -28 -63 -37 -63 -5 0 -4 7 3 15 7 8 10 15 6 15 -4 0
1 11 10 25 19 29 26 32 18 8z m2885 -107 c25 -17 58 -37 74 -44 24 -10 29 -9
39 8 22 34 42 23 76 -44 25 -49 32 -75 31 -117 -1 -71 -11 -103 -32 -107 -18
-4 -20 4 -20 67 1 34 0 34 -12 10 -7 -13 -12 -27 -9 -30 2 -3 -8 -16 -21 -29
-26 -24 -24 -26 -40 25 -2 8 -1 15 4 15 5 0 8 24 6 53 -1 28 3 55 8 58 5 3 2
9 -6 12 -12 4 -16 -9 -22 -68 -4 -41 -4 -79 -1 -84 4 -6 -2 -14 -12 -20 -14
-8 -23 -5 -38 12 -15 18 -18 36 -16 100 1 59 -1 78 -10 74 -9 -3 -12 -23 -10
-65 2 -47 -1 -65 -15 -81 -9 -12 -21 -21 -25 -21 -18 0 -41 71 -45 140 -3 41
-8 77 -12 80 -12 8 -20 60 -9 60 5 0 8 6 7 13 -1 6 -1 20 0 30 1 16 3 17 33 1
17 -9 52 -31 77 -48z m661 27 c0 -12 -3 -13 -14 -4 -11 9 -15 9 -19 -1 -3 -7
-6 -3 -6 9 -1 16 3 20 19 16 11 -3 20 -12 20 -20z m80 17 c-13 -8 -12 -10 4
-10 11 0 17 -3 13 -6 -3 -4 -13 -4 -22 0 -18 6 -11 26 8 26 7 0 6 -4 -3 -10z
m-3646 -42 c-2 -13 -5 -35 -6 -50 -1 -16 -5 -28 -9 -28 -4 0 -5 -9 -2 -21 4
-15 -7 -33 -43 -70 -26 -27 -51 -49 -55 -49 -4 0 -4 12 1 28 11 36 31 92 41
117 5 11 10 27 11 35 2 12 54 60 64 60 2 0 1 -10 -2 -22z m3126 -13 c0 -12
-19 -12 -23 0 -4 9 -1 12 9 8 7 -3 14 -7 14 -8z m402 -7 c-7 -7 -12 -8 -12 -2
0 14 12 26 19 19 2 -3 -1 -11 -7 -17z m-27 -37 c-3 -6 -11 -11 -16 -11 -5 0
-4 6 3 14 14 16 24 13 13 -3z m26 -4 c-10 -9 -11 -8 -5 6 3 10 9 15 12 12 3
-3 0 -11 -7 -18z m-2239 -34 c-6 -2 -9 -10 -6 -16 5 -8 2 -8 -7 1 -20 18 -33
15 -18 -5 13 -16 12 -17 -3 -5 -18 14 -58 10 -108 -11 -14 -6 -27 -11 -30 -11
-20 -5 -102 -62 -111 -77 -8 -16 -5 -21 13 -30 46 -21 63 -58 64 -141 0 -43
-2 -76 -4 -73 -3 3 -14 -9 -24 -26 -25 -41 -98 -73 -146 -64 -33 6 -105 47
-99 56 1 2 -4 -2 -11 -11 -7 -8 -10 -20 -8 -27 3 -7 2 -13 -3 -13 -4 0 -13
-29 -19 -64 -12 -76 6 -206 34 -237 9 -10 13 -19 8 -19 -5 0 -2 -5 6 -10 13
-9 13 -10 0 -10 -17 0 -53 53 -43 64 3 3 2 6 -4 6 -11 0 -20 17 -31 60 -12 43
-6 233 8 265 7 17 14 32 15 35 10 33 39 90 45 90 5 0 11 9 15 20 12 36 149
168 198 190 25 11 49 25 52 29 3 5 23 12 45 16 22 4 42 10 44 13 2 4 35 8 73
9 37 1 62 -1 55 -4z m-367 -39 c-8 -16 -15 -35 -15 -42 0 -9 -4 -10 -18 -1
-14 9 -25 8 -50 -5 -17 -9 -41 -16 -54 -16 -13 -1 -40 -7 -60 -14 -35 -12 -36
-12 -25 6 7 10 32 26 57 35 25 10 51 23 58 30 7 7 23 13 35 13 12 1 36 7 52
14 17 7 31 12 33 11 1 -1 -4 -15 -13 -31z m1838 0 c-3 -8 -15 -12 -26 -10 -12
3 -24 5 -26 5 -2 1 6 10 19 21 24 21 44 11 33 -16z m-1378 17 c3 -5 2 -12 -3
-15 -5 -3 -9 1 -9 9 0 17 3 19 12 6z m-418 -31 c-27 -22 -33 -19 -16 8 7 11
18 18 26 15 9 -4 6 -10 -10 -23z m1140 -40 c24 -25 45 -53 49 -62 3 -10 10
-18 17 -18 6 0 -7 -19 -29 -42 -45 -48 -108 -125 -171 -208 -23 -31 -52 -64
-65 -75 -59 -50 -53 -50 -101 -2 -35 35 -45 53 -49 85 -2 25 1 43 8 46 6 2 26
34 45 70 39 75 173 243 200 251 11 4 19 11 19 17 0 14 24 -6 77 -62z m-813 52
c3 -5 -1 -9 -9 -9 -8 0 -12 4 -9 9 3 4 7 8 9 8 2 0 6 -4 9 -8z m1921 -21 c3
-5 2 -12 -3 -15 -5 -3 -9 1 -9 9 0 17 3 19 12 6z m242 -6 c4 -4 2 -5 -4 -1
-15 9 -16 1 -4 -23 8 -13 6 -18 -5 -18 -8 0 -13 5 -11 11 3 6 0 18 -4 28 -6
12 -5 16 6 14 8 -1 18 -6 22 -11z m-39 -14 c3 -8 0 -11 -7 -7 -6 4 -11 2 -11
-4 0 -7 -6 -5 -15 4 -20 20 -19 23 7 22 12 0 23 -7 26 -15z m-3442 -28 c-7
-21 -16 -59 -20 -85 -4 -27 -10 -48 -14 -48 -10 1 -47 30 -38 30 5 0 1 11 -8
24 -15 24 -14 26 29 70 54 56 69 59 51 9z m1507 24 c3 -8 -1 -14 -8 -14 -7 0
-11 6 -8 14 3 7 6 13 8 13 2 0 5 -6 8 -13z m47 -12 c0 -2 -6 -8 -13 -14 -10
-8 -14 -7 -14 2 0 8 6 14 14 14 7 0 13 -1 13 -2z m1913 -29 c9 5 9 4 0 -6 -6
-7 -9 -19 -6 -28 5 -10 2 -13 -6 -8 -7 5 -10 14 -7 22 3 7 1 16 -4 19 -6 4
-10 12 -10 18 0 7 5 4 11 -6 6 -9 16 -14 22 -11z m-2779 -1 c-4 -8 -10 -15
-16 -15 -5 0 -70 -29 -145 -65 -75 -36 -141 -64 -146 -62 -16 5 32 44 61 52
27 6 129 49 207 85 22 11 41 19 42 20 1 0 0 -7 -3 -15z m814 -10 c-3 -3 -9 2
-12 12 -6 14 -5 15 5 6 7 -7 10 -15 7 -18z m-1655 -20 c28 -26 35 -45 17 -45
-14 0 -12 -22 4 -43 13 -16 30 -24 60 -26 14 -1 -44 -60 -66 -67 -20 -6 -25
-34 -5 -34 14 0 33 -27 59 -84 22 -47 22 -45 -2 -39 -11 3 -20 12 -20 19 0 8
-4 14 -9 14 -5 0 -14 14 -21 30 -7 17 -16 30 -21 30 -5 0 -9 7 -9 15 0 9 -7
30 -17 48 -19 37 -26 146 -11 164 6 7 8 20 4 28 -8 22 6 18 37 -10z m3616 -66
c-7 -13 -13 -27 -14 -31 0 -4 -7 -13 -15 -20 -12 -11 -12 -11 -1 5 7 9 11 17
7 17 -4 0 1 11 10 25 8 13 12 30 8 37 -5 10 -4 10 5 2 10 -10 10 -17 0 -35z
m-278 4 c13 -17 13 -17 -6 -3 -11 8 -22 16 -24 17 -2 2 0 3 6 3 6 0 17 -8 24
-17z m-2621 -3 c-8 -5 -19 -10 -25 -10 -5 0 -3 5 5 10 8 5 20 10 25 10 6 0 3
-5 -5 -10z m2950 -10 c0 -5 -5 -10 -11 -10 -5 0 -7 5 -4 10 3 6 8 10 11 10 2
0 4 -4 4 -10z m-2175 -9 c-3 -5 -1 -12 5 -16 6 -4 8 -11 4 -16 -9 -14 -23 -1
-19 19 5 23 4 22 11 22 3 0 3 -4 -1 -9z m270 -1 c-3 -5 -12 -10 -18 -10 -7 0
-6 4 3 10 19 12 23 12 15 0z m1921 -19 c-10 -11 -13 -22 -8 -25 6 -3 12 1 16
9 3 8 11 15 17 15 8 0 7 -6 -3 -17 -9 -10 -18 -27 -21 -38 -5 -20 -5 -20 -6 1
0 11 -6 25 -13 32 -9 9 -7 16 7 32 10 11 20 18 23 15 3 -3 -3 -13 -12 -24z
m74 25 c0 -2 -7 -7 -16 -10 -8 -3 -12 -2 -9 4 6 10 25 14 25 6z m-3249 -34
c-6 -11 -21 -29 -33 -39 -27 -21 -84 -95 -81 -105 1 -3 -13 -13 -32 -22 -19
-10 -35 -21 -35 -27 0 -24 -32 -19 -62 10 -18 17 -36 31 -40 31 -20 0 -5 41
20 54 15 8 37 24 49 35 12 12 30 22 40 24 10 2 28 9 41 15 12 7 26 10 31 8 5
-3 11 1 14 8 5 12 85 38 95 30 2 -1 -1 -11 -7 -22z m2654 19 c3 -5 1 -12 -5
-16 -5 -3 -10 1 -10 9 0 18 6 21 15 7z m70 -4 c13 2 15 0 5 -4 -8 -3 -24 -13
-35 -22 -19 -15 -19 -15 -5 3 14 18 13 19 -2 13 -12 -4 -15 -2 -11 8 3 8 10
12 17 8 6 -4 20 -7 31 -6z m-1425 -12 c0 -2 -6 -5 -13 -8 -8 -3 -14 1 -14 8 0
7 6 11 14 8 7 -3 13 -6 13 -8z m1275 -5 c10 -11 16 -20 13 -20 -3 0 -13 9 -23
20 -10 11 -16 20 -13 20 3 0 13 -9 23 -20z m58 0 c3 -11 1 -18 -4 -14 -5 3 -9
12 -9 20 0 20 7 17 13 -6z m212 5 c6 0 10 -7 10 -15 0 -8 5 -15 12 -15 6 0 14
-3 17 -7 3 -5 3 -6 -1 -3 -3 3 -13 -1 -21 -8 -13 -9 -14 -9 -8 1 4 6 4 12 -1
12 -4 0 -17 12 -27 27 -12 16 -14 23 -5 17 8 -5 19 -9 24 -9z m-2731 -3 c-6
-4 -38 -50 -71 -103 -52 -82 -71 -122 -79 -164 -1 -5 -3 -12 -4 -15 -1 -3 -7
-32 -15 -65 -11 -54 -10 -70 11 -170 32 -148 28 -136 78 -239 60 -124 123
-195 211 -240 72 -37 186 -72 243 -75 26 -2 6 -24 -23 -27 -17 -2 -46 -6 -65
-9 -19 -3 -44 -6 -55 -6 -10 0 -26 -5 -34 -12 -8 -7 -12 -7 -8 -1 4 7 -9 11
-36 11 -83 0 -160 17 -199 44 -14 11 -30 19 -36 19 -21 0 -99 70 -127 114 -16
25 -33 46 -37 46 -4 0 -8 7 -8 15 0 8 -4 15 -9 15 -5 0 -11 8 -14 18 -3 9 -17
48 -31 87 -18 49 -26 89 -26 135 0 73 26 257 38 274 5 6 14 30 22 54 7 23 17
42 22 42 4 0 8 9 8 20 0 11 7 23 15 26 8 4 15 14 15 23 0 9 9 22 20 29 12 7
19 16 16 20 -11 18 142 139 179 141 6 0 5 -3 -1 -7z m2675 -37 c16 -35 19 -50
11 -63 -9 -14 -10 -13 -4 7 4 17 3 21 -6 16 -8 -5 -11 -3 -8 6 6 17 -22 50
-36 42 -6 -4 -5 0 1 9 7 8 10 18 6 21 -3 4 -2 7 4 7 6 0 20 -20 32 -45z m331
41 c0 -2 -8 -10 -17 -17 -16 -13 -17 -12 -4 4 13 16 21 21 21 13z m-565 -15
c3 -6 -5 -8 -17 -6 -17 3 -28 -3 -43 -25 -11 -16 -21 -27 -23 -25 -2 2 6 18
18 34 21 30 53 41 65 22z m-2787 -21 c23 0 12 -16 -38 -54 -27 -21 -50 -42
-50 -48 0 -12 26 -38 37 -38 12 0 78 -68 72 -74 -14 -14 -79 -21 -120 -13 -44
9 -49 13 -99 90 l-53 81 39 33 c39 34 39 34 119 29 44 -3 86 -6 93 -6z m3278
-10 c0 -12 -4 -16 -9 -11 -5 5 -6 14 -3 20 10 15 12 14 12 -9z m-69 -24 c-1
-6 4 -10 11 -8 8 1 11 -2 7 -8 -3 -6 -10 -8 -15 -5 -5 3 -11 1 -15 -5 -4 -6
-10 -8 -15 -5 -4 3 -10 -2 -14 -10 -3 -8 -4 -15 -3 -15 1 0 17 4 35 9 20 6 30
6 27 0 -4 -5 -15 -9 -26 -9 -11 0 -18 -4 -14 -9 3 -5 0 -13 -6 -17 -7 -4 -9
-3 -5 4 3 5 1 12 -6 14 -14 5 -20 37 -7 39 5 1 14 3 19 4 6 1 13 3 16 4 3 0 2
6 -1 11 -4 7 -14 6 -28 -1 -20 -9 -20 -9 -5 4 20 16 48 18 45 3z m50 -11 c0
-8 -4 -12 -9 -9 -5 3 -6 10 -3 15 9 13 12 11 12 -6z m-142 -37 c-3 -24 -12
-49 -20 -57 -12 -12 -15 -11 -21 12 -9 37 2 75 24 80 9 3 18 5 20 6 1 0 0 -18
-3 -41z m-365 17 c0 -8 -4 -15 -9 -15 -13 0 -22 16 -14 24 11 11 23 6 23 -9z
m260 -20 c0 -5 -5 -3 -10 5 -5 8 -10 20 -10 25 0 6 5 3 10 -5 5 -8 10 -19 10
-25z m-244 -17 c-9 -12 -16 -17 -16 -10 0 7 -4 10 -10 7 -5 -3 -10 -1 -10 5 0
7 6 10 14 7 8 -3 17 1 20 10 4 9 9 13 12 10 3 -3 -1 -16 -10 -29z m-1259 0
c-3 -8 -6 -5 -6 6 -1 11 2 17 5 13 3 -3 4 -12 1 -19z m1764 5 c13 -17 13 -17
-6 -3 -11 8 -22 16 -24 17 -2 2 0 3 6 3 6 0 17 -8 24 -17z m-268 -25 c-2 -5 0
-8 6 -8 5 0 11 6 14 13 3 6 5 3 4 -8 -1 -13 -8 -21 -18 -21 -10 0 -15 4 -13 8
3 4 0 8 -5 8 -6 0 -11 -6 -11 -12 0 -9 -3 -8 -10 2 -7 11 -5 17 8 22 15 6 14
7 -3 7 -16 1 -17 3 -6 10 15 10 43 -8 34 -21z m-203 12 c0 -5 -2 -10 -4 -10
-3 0 -8 5 -11 10 -3 6 -1 10 4 10 6 0 11 -4 11 -10z m447 4 c-3 -3 -13 -7 -24
-9 -10 -1 -17 -8 -15 -15 1 -6 -2 -9 -8 -5 -16 10 4 30 31 32 11 1 19 0 16 -3z
m-543 -13 c4 -5 -3 -7 -14 -4 -23 6 -26 13 -6 13 8 0 17 -4 20 -9z m45 -15 c9
-11 9 -16 0 -22 -8 -4 -9 -3 -5 4 9 16 -7 15 -22 0 -16 -16 -15 -1 1 17 15 18
12 18 26 1z m64 -57 c17 -16 34 -29 38 -29 4 0 9 -9 12 -20 7 -26 -10 -26 -18
1 -4 11 -18 25 -32 32 -21 9 -27 8 -40 -8 -9 -12 -13 -14 -11 -5 6 19 -32 40
-49 27 -9 -7 -13 -5 -13 6 0 13 13 15 38 8 1 -1 5 -1 10 -2 4 0 13 -5 20 -11
9 -8 12 -6 12 6 0 9 -4 16 -9 16 -4 0 -6 12 -2 28 5 26 6 26 9 3 2 -13 18 -37
35 -52z m857 67 c0 -2 -7 -7 -16 -10 -8 -3 -12 -2 -9 4 6 10 25 14 25 6z
m-973 -20 c4 -4 1 -6 -7 -4 -10 2 -16 -8 -20 -32 -5 -26 -8 -31 -14 -18 -4 9
-3 25 3 36 6 11 8 22 5 25 -3 3 1 4 10 3 8 -1 19 -6 23 -10z m747 3 c-4 -7
-44 0 -44 7 0 2 11 3 24 2 14 -1 23 -5 20 -9z m-151 -13 c9 -7 17 -19 17 -27
-1 -10 -4 -8 -11 4 -6 9 -15 14 -21 11 -6 -4 -8 -3 -4 4 3 5 0 13 -6 15 -7 3
-8 6 -3 6 6 0 18 -6 28 -13z m181 -8 c-6 -19 -4 -21 7 -12 15 12 51 4 50 -11
-1 -12 -34 -16 -41 -5 -3 4 -14 2 -24 -6 -20 -14 -20 -14 0 -14 15 0 16 -2 4
-10 -8 -5 -11 -12 -7 -16 3 -4 13 -1 21 5 11 9 16 9 22 -1 4 -7 3 -10 -1 -5
-5 4 -19 -3 -32 -15 -19 -18 -23 -19 -17 -5 4 12 2 16 -7 14 -8 -2 -11 -2 -6
0 11 7 8 33 -4 33 -5 0 -7 -4 -4 -10 3 -6 -1 -7 -10 -4 -10 4 -14 1 -12 -7 2
-8 2 -11 0 -6 -3 4 -8 5 -12 3 -4 -3 -13 0 -21 6 -13 8 -12 9 2 5 21 -7 31 3
17 19 -15 18 8 29 27 13 13 -10 17 -10 25 2 12 20 11 32 -3 23 -7 -4 -8 -3 -4
5 4 6 12 9 17 6 5 -4 9 -1 9 4 0 6 3 11 6 11 3 0 2 -10 -2 -22z m-649 2 c8
-13 -5 -13 -25 0 -13 8 -13 10 2 10 9 0 20 -4 23 -10z m39 -12 c-14 -16 -15
-20 -4 -16 11 4 16 0 16 -13 0 -23 -14 -25 -22 -4 -4 8 -14 15 -23 16 -11 0
-10 3 5 9 12 5 25 13 29 19 3 6 9 11 12 11 3 0 -2 -10 -13 -22z m-1258 -3 c-1
-8 -5 -17 -8 -21 -5 -4 -4 16 1 34 3 9 9 -1 7 -13z m1394 1 c0 -8 3 -22 7 -32
4 -12 2 -15 -8 -12 -15 5 -21 58 -7 58 4 0 8 -6 8 -14z m195 5 c3 -5 0 -13 -6
-17 -8 -4 -9 -3 -5 4 4 7 2 12 -3 12 -6 0 -11 -5 -11 -12 0 -6 -3 -9 -6 -5 -7
7 4 27 16 27 5 0 11 -4 15 -9z m167 2 c-6 -2 -10 -8 -8 -12 3 -4 -4 -8 -15 -8
-10 -1 -19 3 -19 8 0 6 4 8 9 4 5 -3 12 -1 16 5 3 5 12 10 18 9 9 0 8 -2 -1
-6z m-2107 -15 c4 -3 2 -9 -3 -12 -5 -3 -15 1 -21 8 -10 11 -9 14 3 12 9 -1
18 -5 21 -8z m2309 -11 c-2 -7 -14 -19 -27 -26 -21 -13 -21 -12 2 13 27 29 33
32 25 13z m-2180 -28 c-3 -5 -10 -7 -15 -3 -5 3 -7 10 -3 15 3 5 10 7 15 3 5
-3 7 -10 3 -15z m1751 10 c11 -16 1 -19 -13 -3 -7 8 -8 14 -3 14 5 0 13 -5 16
-11z m132 -4 c0 -8 -4 -12 -9 -9 -5 3 -6 10 -3 15 9 13 12 11 12 -6z m-1697 2
c0 -2 -12 -14 -27 -28 l-28 -24 24 28 c23 25 31 32 31 24z m1160 -7 c0 -5 -8
-7 -17 -3 -15 5 -16 4 -5 -8 11 -12 15 -11 27 4 11 16 13 13 12 -22 0 -22 -4
-38 -8 -35 -4 2 -5 13 -2 24 6 24 0 25 -22 4 -15 -16 -14 -18 12 -36 15 -11
21 -17 13 -14 -8 3 -22 9 -31 12 -12 4 -16 16 -14 42 4 46 2 42 20 42 8 0 15
-4 15 -10z m-54 -30 c0 -23 -12 -17 -19 9 -3 12 0 18 7 15 6 -2 12 -13 12 -24z
m-1686 6 c0 -2 -7 -7 -16 -10 -8 -3 -12 -2 -9 4 6 10 25 14 25 6z m1397 -8
c15 -7 30 -15 33 -18 15 -15 100 -70 109 -70 6 0 11 -4 11 -10 0 -5 6 -10 14
-10 8 0 23 -11 34 -25 11 -14 24 -25 29 -25 5 0 21 -14 36 -31 21 -24 25 -35
17 -49 -8 -15 -6 -20 10 -25 11 -3 20 -11 20 -17 0 -6 8 -18 18 -27 29 -25 31
-53 5 -78 -21 -20 -23 -20 -32 -5 -8 13 -9 10 -7 -13 2 -16 -1 -38 -6 -48 -8
-16 -11 -16 -49 5 -22 13 -56 40 -75 61 -26 28 -39 35 -50 29 -13 -7 -10 -13
20 -31 36 -23 82 -78 73 -87 -3 -3 -16 -2 -29 2 -13 4 -25 9 -28 9 -3 1 -12 4
-20 8 -33 12 -87 26 -132 32 -53 7 -152 40 -185 61 -13 8 -23 12 -23 9 0 -5
-10 3 -72 61 -20 19 -20 18 89 133 39 42 90 97 113 124 24 26 44 47 46 47 2 0
16 -6 31 -12z m442 -58 c1 -82 -29 -102 -49 -32 -14 52 -13 59 12 84 21 21 22
21 29 2 4 -10 8 -35 8 -54z m431 55 c-7 -9 -15 -13 -19 -10 -3 3 1 10 9 15 21
14 24 12 10 -5z m-2340 1 c0 -3 -4 -8 -10 -11 -5 -3 -10 -1 -10 4 0 6 5 11 10
11 6 0 10 -2 10 -4z m2101 -21 c5 4 9 0 9 -8 0 -7 -7 -14 -15 -14 -10 0 -15 9
-14 26 1 17 3 20 6 8 2 -9 9 -15 14 -12z m346 12 c0 -8 -6 -14 -14 -14 -9 0
-10 4 -2 14 6 7 12 13 14 13 1 0 2 -6 2 -13z m133 9 c0 -2 -8 -10 -17 -17 -16
-13 -17 -12 -4 4 13 16 21 21 21 13z m-1896 -18 c-3 -5 -10 -6 -15 -3 -5 4 -9
1 -9 -6 0 -7 -3 -10 -6 -6 -9 9 3 24 20 24 8 0 13 -4 10 -9z m1385 -21 c0 -21
-1 -21 -9 -2 -12 28 -12 37 0 30 6 -3 10 -16 9 -28z m288 18 c0 -8 -4 -12 -9
-9 -5 3 -6 10 -3 15 9 13 12 11 12 -6z m-1547 -5 c0 -5 -5 -10 -11 -10 -5 0
-7 5 -4 10 3 6 8 10 11 10 2 0 4 -4 4 -10z m1127 -12 c-3 -8 -6 -5 -6 6 -1 11
2 17 5 13 3 -3 4 -12 1 -19z m244 5 c10 -11 10 -14 2 -9 -9 5 -13 1 -14 -11 0
-12 -2 -14 -6 -4 -5 11 -7 11 -14 0 -7 -11 -9 -11 -9 -1 0 7 7 15 15 18 8 4
12 10 9 15 -9 15 3 10 17 -8z m-2157 -18 c-9 -14 -18 -25 -21 -25 -5 0 5 18
20 38 17 22 18 13 1 -13z m2463 8 c-14 -14 -19 -15 -29 -4 -7 8 -8 11 -3 8 6
-3 17 -2 25 4 23 14 26 11 7 -8z m-47 3 c0 -2 -7 -7 -16 -10 -8 -3 -12 -2 -9
4 6 10 25 14 25 6z m-1870 -16 c0 -5 -2 -10 -4 -10 -3 0 -8 5 -11 10 -3 6 -1
10 4 10 6 0 11 -4 11 -10z m121 -13 c-10 -9 -11 -8 -5 6 3 10 9 15 12 12 3 -3
0 -11 -7 -18z m1079 8 c11 -13 10 -14 -4 -9 -9 3 -16 10 -16 15 0 13 6 11 20
-6z m53 -9 c3 3 4 -9 3 -28 -2 -20 4 -42 15 -57 10 -13 16 -27 13 -32 -12 -19
10 -7 34 19 14 15 23 19 20 10 -4 -10 -1 -19 9 -22 10 -4 13 -2 10 7 -3 8 3
13 17 14 11 0 15 -1 8 -4 -10 -4 -9 -9 5 -20 13 -10 15 -16 5 -19 -6 -3 -9
-11 -5 -17 5 -8 2 -8 -9 0 -8 7 -19 9 -23 5 -5 -4 -5 -2 -1 5 8 14 -10 27 -25
17 -8 -4 -7 -9 2 -15 7 -4 10 -11 6 -15 -4 -4 -14 1 -21 12 -14 18 -15 17 -14
-13 1 -18 4 -30 9 -28 4 3 19 -9 34 -26 25 -30 26 -31 32 -11 3 12 9 20 13 17
4 -3 8 6 8 19 0 13 7 34 16 47 l16 23 0 -22 c0 -15 -4 -21 -11 -16 -8 4 -9 -1
-4 -16 5 -17 -1 -30 -26 -56 -32 -34 -59 -44 -59 -23 0 5 -6 7 -12 3 -10 -6
-10 -4 0 7 17 19 15 32 -5 25 -10 -4 -14 -4 -10 0 3 4 -2 19 -13 34 -23 32
-25 44 -7 35 6 -4 3 1 -7 9 -11 9 -15 16 -8 16 6 0 9 7 6 15 -6 14 -8 13 -20
-2 -13 -17 -14 -17 -7 1 4 13 3 17 -4 13 -12 -8 -12 11 0 31 10 15 -14 17 -29
2 -7 -7 -11 -6 -11 4 0 8 5 12 10 9 6 -3 7 -1 3 5 -4 6 -13 9 -21 5 -10 -3
-15 1 -15 12 0 12 5 15 16 11 24 -9 37 3 22 22 -11 14 -9 14 8 -1 11 -9 23
-14 27 -11z m-1840 -1 c-3 -9 -8 -14 -10 -11 -3 3 -2 9 2 15 9 16 15 13 8 -4z
m1973 0 c-1 -8 -6 -18 -11 -22 -4 -4 -5 -2 -1 5 4 7 2 12 -6 12 -9 0 -9 3 2
10 19 12 19 13 16 -5z m140 2 c3 -3 1 -14 -6 -24 -10 -16 -10 -16 -5 5 6 20 4
21 -18 13 -17 -7 -24 -6 -24 3 0 12 42 15 53 3z m230 2 c3 -6 1 -16 -6 -22
-10 -9 -11 -9 -5 2 4 8 2 17 -6 22 -9 6 -10 9 -2 9 6 0 15 -5 19 -11z m-2009
-26 c1 -22 -1 -24 -8 -10 -6 9 -7 22 -4 27 9 14 10 13 12 -17z m2045 13 c7 4
8 2 4 -5 -9 -13 -26 -5 -25 12 0 9 2 8 6 -1 2 -6 10 -9 15 -6z m-1898 -26 c-6
-6 -10 -3 -10 10 0 13 4 16 10 10 7 -7 7 -13 0 -20z m-116 -5 c-3 -3 -9 2 -12
12 -6 14 -5 15 5 6 7 -7 10 -15 7 -18z m2053 2 c-10 -9 -11 -8 -5 6 3 10 9 15
12 12 3 -3 0 -11 -7 -18z m59 15 c-8 -4 -16 -20 -17 -37 -4 -61 -15 -95 -42
-128 -43 -51 -51 -60 -51 -54 0 3 -17 -11 -38 -31 -22 -21 -45 -36 -52 -34 -7
3 -10 0 -6 -6 3 -6 -3 -13 -14 -17 -11 -3 -20 -10 -20 -15 0 -9 -95 -70 -108
-70 -5 0 -9 7 -9 15 0 8 4 12 9 9 12 -7 69 36 63 47 -4 5 0 6 8 3 8 -3 18 0
23 7 5 8 3 10 -7 4 -8 -5 -11 -4 -6 1 5 5 12 9 16 9 15 0 72 55 66 64 -3 6 5
15 17 21 22 11 22 10 4 -4 -11 -9 -15 -16 -9 -16 7 0 21 12 33 27 16 21 18 28
8 36 -10 6 -9 7 4 4 17 -6 56 28 45 40 -4 3 -2 12 4 20 6 7 8 13 3 13 -5 0 -3
4 3 8 7 4 14 17 17 27 12 55 19 65 45 64 17 0 21 -3 11 -7z m-401 -33 c-6 -3
-9 -15 -7 -25 2 -14 -4 -20 -22 -22 -21 -2 -22 -1 -8 8 9 5 20 24 23 41 5 23
10 28 16 18 4 -8 4 -16 -2 -20z m276 12 c-3 -6 -14 -10 -23 -10 -15 1 -15 2 1
6 9 2 17 9 17 15 0 6 3 9 6 5 3 -3 3 -10 -1 -16z m-1454 -8 c13 -16 12 -17 -3
-4 -17 13 -22 21 -14 21 2 0 10 -8 17 -17z m1064 8 c-3 -6 3 -14 12 -20 16 -9
16 -10 -3 -8 -20 1 -33 37 -13 37 6 0 8 -4 4 -9z m-1302 -16 c-3 -9 -8 -14
-10 -11 -3 3 -2 9 2 15 9 16 15 13 8 -4z m-314 -9 c9 -11 9 -16 -1 -22 -7 -4
-10 -4 -6 1 4 4 3 14 -3 22 -6 7 -9 13 -6 13 2 0 10 -6 16 -14z m335 -28 c-3
-4 -12 -4 -21 -1 -13 5 -15 2 -9 -13 5 -14 4 -16 -5 -7 -15 15 -4 32 21 30 10
-1 17 -5 14 -9z m326 -10 c0 -6 -6 -5 -15 2 -8 7 -15 14 -15 16 0 2 7 1 15 -2
8 -4 15 -11 15 -16z m-458 1 c-13 -5 -21 -13 -18 -17 3 -5 -1 -18 -10 -28 -14
-18 -15 -18 -4 4 6 12 8 22 4 22 -3 0 -1 7 6 15 7 8 20 15 29 14 10 0 8 -3 -7
-10z m199 -12 c-10 -9 -11 -8 -5 6 3 10 9 15 12 12 3 -3 0 -11 -7 -18z m-281
9 c0 -3 -4 -8 -10 -11 -5 -3 -10 -1 -10 4 0 6 5 11 10 11 6 0 10 -2 10 -4z
m1580 -21 c-7 -9 -15 -13 -17 -11 -7 7 7 26 19 26 6 0 6 -6 -2 -15z m-1326 -3
c3 -5 -1 -9 -9 -9 -8 0 -12 4 -9 9 3 4 7 8 9 8 2 0 6 -4 9 -8z m326 -6 c0 -2
-8 -10 -17 -17 -16 -13 -17 -12 -4 4 13 16 21 21 21 13z m-1155 -16 c3 -6 -1
-7 -9 -4 -18 7 -21 14 -7 14 6 0 13 -4 16 -10z m1188 -8 c15 -16 15 -18 -1
-18 -10 0 -18 8 -18 18 0 10 1 18 2 18 0 0 8 -8 17 -18z m-1226 -24 c-3 -8 -6
-5 -6 6 -1 11 2 17 5 13 3 -3 4 -12 1 -19z m2466 -8 c3 -11 1 -18 -4 -14 -5 3
-9 12 -9 20 0 20 7 17 13 -6z m-1867 -18 c-10 -12 -14 -27 -10 -38 5 -16 4
-16 -5 -4 -10 13 -15 8 -12 -12 0 -4 -7 -4 -16 -1 -11 4 -13 8 -5 11 7 2 9 9
6 14 -4 6 -3 8 2 5 6 -3 18 7 29 23 11 16 21 27 24 25 2 -3 -3 -13 -13 -23z
m-85 5 c-6 -8 -9 -17 -6 -21 3 -3 0 -2 -6 3 -12 10 -4 31 13 31 7 0 7 -4 -1
-13z m212 0 c3 -8 -1 -14 -8 -14 -7 0 -11 6 -8 14 3 7 6 13 8 13 2 0 5 -6 8
-13z m-559 -5 c3 -5 -1 -9 -9 -9 -8 0 -12 4 -9 9 3 4 7 8 9 8 2 0 6 -4 9 -8z
m463 -21 c0 -11 -5 -18 -9 -15 -4 3 -5 11 -1 19 7 21 12 19 10 -4z m1567 11
c3 -5 -1 -9 -9 -9 -8 0 -12 4 -9 9 3 4 7 8 9 8 2 0 6 -4 9 -8z m-1489 -20 c-3
-3 -11 0 -18 7 -9 10 -8 11 6 5 10 -3 15 -9 12 -12z m572 3 c0 -8 -4 -12 -9
-9 -5 3 -6 10 -3 15 9 13 12 11 12 -6z m-1082 -5 c3 -6 -1 -7 -9 -4 -18 7 -21
14 -7 14 6 0 13 -4 16 -10z m1951 -15 c-9 -9 -16 -13 -16 -8 0 12 22 34 28 28
2 -2 -3 -11 -12 -20z m264 21 c0 -3 -4 -8 -10 -11 -5 -3 -10 -1 -10 4 0 6 5
11 10 11 6 0 10 -2 10 -4z m-1095 -37 c-4 -5 -1 -9 6 -9 7 0 9 -3 6 -6 -9 -9
-38 16 -31 27 3 5 10 7 15 3 5 -3 7 -10 4 -15z m-1020 1 c3 -6 -1 -7 -9 -4
-18 7 -21 14 -7 14 6 0 13 -4 16 -10z m30 0 c3 -5 1 -10 -4 -10 -6 0 -11 5
-11 10 0 6 2 10 4 10 3 0 8 -4 11 -10z m954 -4 c9 -11 9 -16 -1 -22 -7 -4 -10
-4 -6 1 4 4 3 14 -3 22 -6 7 -9 13 -6 13 2 0 10 -6 16 -14z m-732 -9 c0 -8 -6
-14 -14 -14 -9 0 -10 4 -2 14 6 7 12 13 14 13 1 0 2 -6 2 -13z m200 -1 c0 -8
-6 -12 -14 -9 -7 3 -13 -1 -13 -8 0 -7 -3 -9 -6 -6 -7 7 14 37 26 37 3 0 7 -6
7 -14z m-297 -16 c6 -11 8 -20 6 -20 -3 0 -10 9 -16 20 -6 11 -8 20 -6 20 3 0
10 -9 16 -20z m-249 -19 c-6 -10 -7 -21 -3 -25 3 -4 -1 -4 -10 -1 -15 6 -15 8
0 26 21 24 26 24 13 0z m1195 -8 c-7 -7 -26 7 -26 19 0 6 6 6 15 -2 9 -7 13
-15 11 -17z m749 9 c-3 -3 -11 0 -18 7 -9 10 -8 11 6 5 10 -3 15 -9 12 -12z
m69 6 c-5 -8 -1 -9 12 -5 18 7 18 6 2 -6 -10 -8 -14 -18 -10 -22 4 -5 1 -5 -6
-1 -7 4 -10 12 -7 17 4 5 0 9 -7 9 -9 0 -9 3 2 10 20 13 23 12 14 -2z m-1809
-17 c-3 -6 -11 -8 -17 -5 -6 4 -5 9 3 15 16 10 23 4 14 -10z m-45 -11 c-8 -5
-22 -9 -30 -9 -10 0 -8 3 5 9 27 12 43 12 25 0z m1084 -7 c4 -10 4 -14 0 -10
-4 4 -14 1 -22 -6 -13 -11 -14 -9 -1 11 17 26 15 26 23 5z m869 3 c4 -10 1
-13 -8 -9 -8 3 -12 9 -9 14 7 12 11 11 17 -5z m-836 -21 c0 -8 -4 -12 -9 -9
-5 3 -6 10 -3 15 9 13 12 11 12 -6z m706 -11 c26 -14 30 -24 29 -74 0 -38 -1
-40 -15 -40 -10 0 -14 -13 -13 -45 1 -40 -3 -49 -41 -86 -24 -23 -43 -51 -43
-63 0 -14 -13 -28 -40 -43 -55 -32 -67 -28 -25 8 19 17 38 43 41 58 4 14 22
41 41 59 65 63 71 123 17 182 -20 22 -48 43 -63 47 l-26 7 25 7 c30 9 75 2
113 -17z m82 16 c3 -5 1 -10 -4 -10 -6 0 -11 5 -11 10 0 6 2 10 4 10 3 0 8 -4
11 -10z m-1641 -8 c3 -5 -1 -9 -9 -9 -8 0 -12 4 -9 9 3 4 7 8 9 8 2 0 6 -4 9
-8z m986 -17 c8 -3 56 -16 105 -30 50 -13 100 -30 112 -36 12 -6 32 -9 45 -6
13 3 34 8 47 11 12 3 30 11 39 18 8 7 25 14 36 15 12 1 35 5 53 9 26 5 37 1
58 -20 22 -23 26 -33 23 -78 -3 -47 -5 -52 -33 -61 -33 -11 -55 -30 -55 -46 0
-6 4 -11 10 -11 26 0 -20 -58 -79 -100 -12 -8 -21 -22 -21 -31 0 -11 -13 -22
-34 -29 -19 -6 -36 -17 -39 -24 -3 -7 -16 -12 -29 -11 -12 1 -26 -3 -30 -8 -3
-5 -34 -11 -67 -13 -34 -2 -65 -6 -71 -9 -5 -3 -12 -1 -15 5 -4 6 -26 9 -51 6
-24 -2 -46 0 -49 4 -5 8 -64 24 -79 21 -5 -1 -12 2 -15 6 -8 11 -70 43 -83 43
-5 0 -16 7 -24 15 -9 8 -11 15 -5 15 5 0 12 8 15 18 3 9 25 37 49 62 53 54 75
88 80 119 2 12 9 26 16 30 7 4 11 12 10 17 -1 5 3 22 9 37 7 16 10 32 7 37
-11 18 8 42 29 35 11 -3 28 -8 36 -10z m-1206 -20 c-4 -8 1 -17 9 -21 9 -3 13
-12 10 -20 -3 -8 -1 -14 3 -14 5 0 10 -14 11 -31 4 -53 48 -154 65 -149 2 1
19 -6 38 -14 32 -14 36 -13 48 2 13 16 13 16 10 -2 -2 -14 5 -21 25 -27 16 -4
36 -5 44 -2 11 4 14 2 9 -5 -5 -8 1 -13 16 -14 30 -2 52 -5 58 -8 11 -6 220
-7 220 -1 0 3 55 7 123 8 86 1 112 -1 87 -7 -82 -21 -487 -44 -493 -28 -1 3
-18 7 -37 9 -19 2 -39 5 -45 8 -5 3 -12 6 -15 6 -5 1 -104 32 -120 38 -12 5
-60 122 -60 148 0 16 -5 29 -11 29 -5 0 -7 5 -4 10 3 6 1 10 -4 10 -6 0 -11
10 -11 23 0 32 11 67 21 67 5 0 6 -7 3 -15z m1041 -103 c-17 -15 -18 -15 -6 0
7 9 9 23 5 30 -6 10 -4 11 7 0 11 -10 10 -15 -6 -30z m0 -44 c5 4 5 1 1 -6 -6
-10 -11 -10 -22 -1 -8 6 -14 14 -14 16 0 3 6 0 13 -6 8 -6 18 -7 22 -3z m-69
-84 c-9 -6 -15 -13 -13 -15 1 -2 0 -3 -2 -1 -14 8 -6 28 11 28 17 0 17 -2 4
-12z m-1336 -90 c0 -2 -15 -4 -32 -4 -23 0 -29 3 -19 9 12 8 51 4 51 -5z"/>
<path d="M5600 9009 c0 -5 5 -7 10 -4 6 3 10 8 10 11 0 2 -4 4 -10 4 -5 0 -10
-5 -10 -11z"/>
<path d="M2665 8609 c-4 -6 -5 -12 -2 -15 2 -3 7 2 10 11 7 17 1 20 -8 4z"/>
<path d="M2603 8555 c0 -8 4 -12 9 -9 5 3 6 10 3 15 -9 13 -12 11 -12 -6z"/>
<path d="M2604 8524 c-18 -14 -18 -15 4 -4 12 6 22 13 22 15 0 8 -5 6 -26 -11z"/>
<path d="M2540 8409 c0 -5 5 -7 10 -4 6 3 10 8 10 11 0 2 -4 4 -10 4 -5 0 -10
-5 -10 -11z"/>
<path d="M3300 7140 c-9 -6 -10 -10 -3 -10 6 0 15 5 18 10 8 12 4 12 -15 0z"/>
<path d="M2811 5386 c-15 -17 -11 -39 29 -159 17 -53 33 -102 34 -109 2 -7 5
-20 8 -28 24 -65 37 -111 43 -145 10 -64 15 -75 35 -75 15 0 18 6 15 33 -4 29
-46 172 -66 222 -22 55 -69 224 -69 248 0 30 -11 35 -29 13z"/>
<path d="M3375 5117 c-6 -7 -16 -25 -23 -42 -16 -35 -124 -199 -134 -203 -5
-2 -8 -7 -8 -12 0 -4 -19 -39 -42 -76 -50 -83 -64 -167 -23 -136 6 4 10 12 10
17 1 25 17 75 25 75 4 0 11 12 14 26 4 15 18 43 32 63 13 19 24 41 24 48 0 7
5 13 10 13 6 0 10 4 10 10 0 5 19 36 43 67 53 70 87 129 87 149 0 17 -11 18
-25 1z"/>
<path d="M6237 3604 c-2 -2 -18 -4 -35 -6 -29 -2 -33 -6 -30 -28 3 -23 7 -25
43 -23 22 2 54 8 72 14 27 8 30 13 20 23 -12 12 -63 27 -70 20z"/>
<path d="M6665 2319 c-4 -6 -5 -12 -2 -15 2 -3 7 2 10 11 7 17 1 20 -8 4z"/>
<path d="M6600 2290 c8 -5 20 -10 25 -10 6 0 3 5 -5 10 -8 5 -19 10 -25 10 -5
0 -3 -5 5 -10z"/>
<path d="M6577 2253 c4 -10 8 -11 13 -3 4 6 15 8 26 4 10 -4 16 -4 12 1 -4 4
-18 9 -32 10 -18 2 -23 -1 -19 -12z"/>
<path d="M6776 2237 c3 -10 9 -15 12 -12 3 3 0 11 -7 18 -10 9 -11 8 -5 -6z"/>
<path d="M6644 2158 c-4 -7 -4 -10 1 -6 4 4 15 2 24 -5 14 -11 14 -10 2 6 -16
20 -18 21 -27 5z"/>
<path d="M6910 2149 c0 -5 5 -7 10 -4 6 3 10 8 10 11 0 2 -4 4 -10 4 -5 0 -10
-5 -10 -11z"/>
<path d="M6524 2128 c-4 -7 -4 -10 1 -6 4 4 15 2 24 -5 14 -11 14 -10 2 6 -16
20 -18 21 -27 5z"/>
<path d="M6916 2038 c3 -5 10 -6 15 -3 13 9 11 12 -6 12 -8 0 -12 -4 -9 -9z"/>
<path d="M6873 2029 c-41 -15 -63 -41 -56 -67 10 -42 49 -107 64 -107 23 -1
40 -15 32 -28 -3 -7 3 -4 14 6 11 9 24 17 30 17 18 0 45 50 47 90 2 32 0 38
-15 35 -9 -2 -25 5 -35 16 -9 10 -23 19 -30 19 -7 0 -17 6 -21 14 -5 9 -15 11
-30 5z m72 -64 c30 -36 31 -43 4 -71 -24 -25 -45 -21 -81 17 -21 21 -22 30 -6
64 15 33 49 29 83 -10z"/>
<path d="M6638 1973 c6 -3 9 -10 5 -16 -4 -7 2 -5 13 3 10 8 20 15 22 16 2 1
-10 1 -25 1 -15 0 -22 -2 -15 -4z"/>
<path d="M6814 1899 c-4 -7 -3 -9 4 -5 5 3 13 0 15 -6 4 -9 6 -10 6 -1 1 17
-16 25 -25 12z"/>
<path d="M6795 1820 c-3 -5 -1 -10 4 -10 6 0 11 5 11 10 0 6 -2 10 -4 10 -3 0
-8 -4 -11 -10z"/>
<path d="M8000 2360 c0 -5 5 -10 11 -10 5 0 7 5 4 10 -3 6 -8 10 -11 10 -2 0
-4 -4 -4 -10z"/>
<path d="M8040 2350 c0 -5 5 -10 11 -10 5 0 7 5 4 10 -3 6 -8 10 -11 10 -2 0
-4 -4 -4 -10z"/>
<path d="M8007 2309 c7 -7 15 -10 18 -7 3 3 -2 9 -12 12 -14 6 -15 5 -6 -5z"/>
<path d="M8141 2034 c0 -11 3 -14 6 -6 3 7 2 16 -1 19 -3 4 -6 -2 -5 -13z"/>
<path d="M7372 2190 c0 -14 2 -19 5 -12 2 6 2 18 0 25 -3 6 -5 1 -5 -13z"/>
<path d="M7800 1776 c0 -2 7 -7 16 -10 8 -3 12 -2 9 4 -6 10 -25 14 -25 6z"/>
<path d="M6977 1424 c-12 -13 -8 -20 14 -21 11 -1 19 3 17 9 -5 15 -22 21 -31
12z"/>
<path d="M7116 1632 c-3 -6 -1 -14 5 -17 14 -9 20 -2 10 14 -6 8 -11 9 -15 3z"/>
<path d="M7255 1520 c4 -6 11 -8 16 -5 14 9 11 15 -7 15 -8 0 -12 -5 -9 -10z"/>
<path d="M7225 1410 c3 -5 11 -10 16 -10 6 0 7 5 4 10 -3 6 -11 10 -16 10 -6
0 -7 -4 -4 -10z"/>
<path d="M6834 6451 c-28 -15 -78 -43 -110 -62 -32 -18 -64 -36 -69 -39 -34
-17 -75 -56 -75 -72 0 -16 3 -17 22 -6 12 7 28 19 37 26 44 37 128 93 175 117
28 14 57 35 64 46 7 10 11 19 10 18 -2 -1 -26 -13 -54 -28z"/>
<path d="M6810 6382 c-27 -9 -49 -65 -30 -77 7 -4 55 74 49 79 -2 2 -11 1 -19
-2z"/>
<path d="M6770 6283 c0 -6 -8 -13 -17 -17 -10 -3 -45 -21 -78 -41 -33 -19 -74
-42 -90 -50 -17 -8 -45 -29 -63 -45 l-32 -29 18 -33 c10 -18 21 -39 23 -47 4
-11 9 -10 23 4 17 18 132 78 150 79 6 1 17 26 26 56 9 30 24 70 34 88 10 19
15 36 12 40 -3 3 -6 1 -6 -5z"/>
<path d="M7343 5805 c0 -8 4 -12 9 -9 5 3 6 10 3 15 -9 13 -12 11 -12 -6z"/>
<path d="M5520 5756 c-178 -96 -300 -180 -395 -273 -24 -24 -48 -43 -55 -43
-6 0 -9 -4 -6 -9 4 -5 0 -11 -6 -14 -7 -2 -10 -8 -5 -12 8 -9 64 6 56 15 -4 6
122 130 133 130 4 0 13 6 20 13 15 15 78 58 159 111 31 20 95 54 142 76 82 39
109 61 70 59 -10 -1 -61 -24 -113 -53z"/>
<path d="M5590 5732 c-16 -18 -17 -27 -7 -52 15 -40 12 -46 -42 -79 -31 -18
-82 -51 -113 -72 -65 -44 -83 -48 -75 -19 6 22 -12 23 -50 2 -19 -11 -20 -15
-10 -43 11 -27 10 -32 -8 -45 -11 -8 -33 -27 -50 -42 -16 -16 -54 -48 -82 -72
-51 -41 -67 -70 -40 -70 6 0 -1 -9 -18 -20 -16 -11 -27 -20 -23 -20 4 0 1 -20
-6 -44 -13 -43 -13 -44 8 -40 28 5 86 36 86 46 0 5 9 8 19 8 10 0 21 6 24 13
2 6 31 30 63 52 33 22 61 42 64 45 3 3 19 14 35 24 17 11 37 25 45 32 52 47
369 264 386 264 5 1 23 12 39 25 25 21 28 27 15 35 -8 5 -20 8 -27 5 -7 -2
-20 3 -29 12 -13 14 -20 14 -36 4 -14 -9 -18 -9 -13 -1 5 8 1 10 -11 7 -11 -3
-38 -8 -61 -12 -38 -6 -41 -5 -36 13 5 20 -12 63 -25 61 -4 0 -14 -8 -22 -17z"/>
<path d="M6856 5411 c-4 -6 -28 -17 -54 -25 -72 -22 -114 -42 -147 -71 -16
-15 -46 -34 -65 -42 -19 -8 -30 -17 -23 -20 15 -5 68 20 118 56 22 16 71 40
108 52 38 13 72 29 74 36 7 17 -3 28 -11 14z"/>
<path d="M4113 4480 c-23 -5 -51 -14 -63 -20 -11 -6 -20 -8 -20 -4 0 4 -8 -1
-19 -10 -10 -9 -24 -16 -31 -14 -7 2 -13 -10 -15 -29 -2 -26 1 -31 18 -30 11
1 22 9 25 19 4 17 14 22 38 19 6 -1 17 6 24 14 7 8 23 15 36 15 12 0 25 3 28
8 2 4 31 8 63 9 32 1 52 -1 46 -4 -7 -2 -13 -11 -13 -19 0 -8 -4 -14 -9 -14
-5 0 -17 -22 -25 -48 -17 -49 -13 -112 7 -112 6 0 8 -3 4 -6 -9 -10 22 -66 33
-59 6 4 10 0 10 -7 0 -9 3 -9 10 2 8 12 10 12 11 -5 0 -11 3 -14 6 -7 7 17
-17 44 -34 38 -8 -3 -12 -2 -9 3 3 5 -1 23 -10 40 -16 33 -16 87 1 109 5 7 17
21 26 30 9 9 19 26 21 37 3 17 10 20 48 17 65 -5 116 -31 113 -59 -2 -14 3
-23 11 -23 8 0 16 -10 18 -22 2 -12 8 -23 14 -25 12 -4 12 102 0 114 -3 4 -30
15 -58 25 -60 22 -235 32 -305 18z"/>
<path d="M4462 4302 c1 -9 -1 -22 -5 -29 -4 -6 -4 -14 1 -17 4 -2 13 8 19 24
9 23 8 30 -4 34 -9 4 -13 0 -11 -12z"/>
<path d="M4420 4227 c-29 -27 -35 -44 -15 -44 7 0 11 7 7 15 -4 11 -1 13 8 7
7 -5 11 -4 8 1 -8 12 17 35 28 26 4 -4 4 -1 0 6 -9 15 -6 16 -36 -11z"/>
<path d="M4295 4190 c-3 -5 -1 -10 4 -10 6 0 11 5 11 10 0 6 -2 10 -4 10 -3 0
-8 -4 -11 -10z"/>
<path d="M4365 4190 c-3 -5 -1 -10 4 -10 6 0 11 5 11 10 0 6 -2 10 -4 10 -3 0
-8 -4 -11 -10z"/>
<path d="M5472 3503 c-26 -5 -24 -29 2 -27 9 1 16 -2 16 -7 0 -5 13 -9 28 -9
16 0 43 -7 60 -16 34 -16 75 -16 70 1 -2 6 -6 9 -10 8 -5 -2 -8 2 -8 8 0 5 -4
8 -9 4 -5 -3 -12 -1 -16 5 -3 5 -17 10 -31 10 -13 0 -24 5 -24 11 0 6 -7 9
-15 5 -8 -3 -15 -1 -15 4 0 10 -8 11 -48 3z"/>
<path d="M6920 3438 c-44 -48 -47 -117 -9 -226 11 -31 21 -63 21 -69 3 -35 96
3 163 66 27 25 48 47 47 49 -1 1 -1 3 -1 5 1 1 3 23 5 49 3 43 -14 100 -30 99
-3 0 -13 2 -23 6 -9 4 -29 -1 -45 -10 -15 -9 -28 -12 -28 -8 0 13 -52 61 -66
61 -7 0 -22 -10 -34 -22z m70 -70 c0 -15 4 -29 8 -32 14 -9 52 6 52 20 0 42
47 18 50 -26 4 -50 -1 -67 -27 -97 -77 -84 -129 -68 -154 49 -12 53 0 114 24
130 18 11 47 -16 47 -44z"/>
<path d="M7143 3005 c-26 -18 -47 -99 -38 -151 3 -21 17 -62 30 -90 33 -70 84
-89 133 -50 44 36 92 91 94 110 6 81 3 98 -24 127 l-28 29 -35 -20 c-43 -24
-45 -24 -45 -5 0 25 -31 65 -49 65 -9 0 -26 -7 -38 -15z m57 -104 c0 -16 3
-37 6 -45 5 -14 10 -12 30 9 14 15 22 30 19 34 -2 5 3 15 13 24 20 18 39 8 61
-35 11 -21 11 -31 3 -41 -7 -8 -9 -17 -5 -20 11 -12 -68 -79 -102 -87 -26 -6
-35 -4 -39 9 -3 9 -18 32 -32 51 -22 30 -25 42 -21 91 2 30 10 66 17 78 l12
23 19 -31 c10 -17 19 -45 19 -60z"/>
</g>
</svg>
